<svg width="13" height="13" viewBox="0 0 13 13" fill="none" xmlns="http://www.w3.org/2000/svg">
<g id="bi:cart">
<path id="Vector" d="M0.554688 0.478753C0.554688 0.378846 0.594376 0.28303 0.665021 0.212384C0.735667 0.141739 0.831482 0.102051 0.93139 0.102051H2.0615C2.14553 0.102074 2.22713 0.130191 2.29334 0.18193C2.35955 0.23367 2.40656 0.306061 2.4269 0.387591L2.73203 1.60886H11.4791C11.5344 1.60891 11.589 1.62114 11.6391 1.64469C11.6891 1.66823 11.7334 1.70251 11.7687 1.74508C11.804 1.78765 11.8295 1.83748 11.8434 1.89102C11.8572 1.94457 11.8592 2.00051 11.849 2.05488L10.7189 8.08212C10.7027 8.16844 10.6569 8.24641 10.5894 8.30254C10.5218 8.35866 10.4368 8.38943 10.349 8.38951H3.56831C3.48049 8.38943 3.39545 8.35866 3.3279 8.30254C3.26036 8.24641 3.21455 8.16844 3.19839 8.08212L2.06903 2.06618L1.76767 0.855456H0.93139C0.831482 0.855456 0.735667 0.815768 0.665021 0.745122C0.594376 0.674477 0.554688 0.578661 0.554688 0.478753ZM2.89175 2.36227L3.88097 7.6361H10.0363L11.0255 2.36227H2.89175ZM4.32171 8.38951C3.92208 8.38951 3.53882 8.54826 3.25624 8.83084C2.97366 9.11343 2.8149 9.49669 2.8149 9.89632C2.8149 10.2959 2.97366 10.6792 3.25624 10.9618C3.53882 11.2444 3.92208 11.4031 4.32171 11.4031C4.72134 11.4031 5.10461 11.2444 5.38719 10.9618C5.66977 10.6792 5.82852 10.2959 5.82852 9.89632C5.82852 9.49669 5.66977 9.11343 5.38719 8.83084C5.10461 8.54826 4.72134 8.38951 4.32171 8.38951ZM9.59555 8.38951C9.19592 8.38951 8.81266 8.54826 8.53007 8.83084C8.24749 9.11343 8.08874 9.49669 8.08874 9.89632C8.08874 10.2959 8.24749 10.6792 8.53007 10.9618C8.81266 11.2444 9.19592 11.4031 9.59555 11.4031C9.99518 11.4031 10.3784 11.2444 10.661 10.9618C10.9436 10.6792 11.1024 10.2959 11.1024 9.89632C11.1024 9.49669 10.9436 9.11343 10.661 8.83084C10.3784 8.54826 9.99518 8.38951 9.59555 8.38951ZM4.32171 9.14291C4.52153 9.14291 4.71316 9.22229 4.85445 9.36358C4.99574 9.50487 5.07512 9.6965 5.07512 9.89632C5.07512 10.0961 4.99574 10.2878 4.85445 10.4291C4.71316 10.5703 4.52153 10.6497 4.32171 10.6497C4.1219 10.6497 3.93027 10.5703 3.78898 10.4291C3.64768 10.2878 3.56831 10.0961 3.56831 9.89632C3.56831 9.6965 3.64768 9.50487 3.78898 9.36358C3.93027 9.22229 4.1219 9.14291 4.32171 9.14291ZM9.59555 9.14291C9.79537 9.14291 9.987 9.22229 10.1283 9.36358C10.2696 9.50487 10.349 9.6965 10.349 9.89632C10.349 10.0961 10.2696 10.2878 10.1283 10.4291C9.987 10.5703 9.79537 10.6497 9.59555 10.6497C9.39573 10.6497 9.2041 10.5703 9.06281 10.4291C8.92152 10.2878 8.84214 10.0961 8.84214 9.89632C8.84214 9.6965 8.92152 9.50487 9.06281 9.36358C9.2041 9.22229 9.39573 9.14291 9.59555 9.14291Z" fill="white"/>
</g>
</svg>
