<svg width="220" height="220" viewBox="0 0 220 220" fill="none" xmlns="http://www.w3.org/2000/svg">
<g id="Group 14113">
<circle id="Ellipse 2375" cx="109.846" cy="109.846" r="109.038" fill="#FA5C98" stroke="#FA5C98" stroke-width="1.61538"/>
<g id="Group">
<path id="Vector" d="M123.737 151.043C124.582 151.389 125.171 152.208 125.171 153.168C125.171 154.436 124.147 155.46 122.88 155.46H103.6C104.048 167.109 104.048 170.694 104.048 170.745C104.048 172.013 103.024 173.037 101.756 173.037C100.489 173.037 99.4648 172.013 99.4648 170.745C99.4648 170.694 99.4648 166.93 99.0168 155.46L98.7991 150.864L98.7607 150.275C98.6455 148.444 98.5431 146.562 98.4663 144.821C97.7494 130.906 97.5189 126.361 81.094 124.082C75.4995 123.301 70.9676 121.266 67.6775 118.398C65.2964 116.324 63.5553 113.802 62.5055 111.011C61.4686 108.22 61.1357 105.186 61.571 102.05C62.1727 97.6844 64.2594 93.1525 67.9592 88.9023C71.2749 85.1001 75.858 81.0419 79.9418 77.4445C84.5249 73.3991 88.4295 69.9553 88.5575 68.9568C88.6344 68.3807 88.3655 67.7662 87.9559 67.3053C87.751 67.0749 87.5334 66.8957 87.3285 66.8061L87.2901 66.7805C86.2916 68.4319 85.3827 69.6737 84.0769 70.5314L83.9232 70.6338C82.451 71.5428 80.7227 71.85 78.2648 71.5556C76.4085 71.338 73.9761 71.466 71.8894 72.3493C70.494 72.9382 69.265 73.8599 68.5609 75.2554C68.1896 76.1259 67.2935 76.702 66.2949 76.6252C65.0275 76.5356 64.0802 75.4346 64.1698 74.18C64.1698 74.1544 64.6947 64.092 70.494 60.0338C71.5437 52.8903 75.5379 48.9473 80.4027 47.4751C83.9872 46.3997 88.0199 46.7454 91.6428 48.192C95.2402 49.6386 98.4791 52.1862 100.489 55.5403C103.561 60.6483 103.83 67.4974 98.3895 74.9481C95.125 79.4032 90.8235 83.3206 86.8421 86.918C80.5947 92.5892 75.2819 97.4028 77.6631 101.243C80.5051 105.839 88.1351 101.282 97.3781 95.7641C103.28 92.2308 109.783 88.3646 116.479 86.009C131.623 80.709 147.191 83.0902 157.791 113.405C158.2 114.596 157.573 115.902 156.382 116.311C155.192 116.721 153.886 116.094 153.476 114.903C144.105 88.0957 130.83 85.8298 117.989 90.3105C111.729 92.4996 105.443 96.2506 99.7337 99.6687C90.0042 105.481 81.7213 110.422 76.2805 106.428C76.7285 107.324 77.407 108.054 78.2648 108.643C79.929 109.757 82.2206 110.397 84.781 110.666C90.0426 111.216 96.2003 110.192 100.399 108.54C103.357 107.376 105.981 106.236 108.503 105.148C113.329 103.061 117.784 101.128 121.932 100.04C133.915 96.8651 142.94 100.091 149.098 123.314C149.098 123.314 138.805 119.064 135.413 118.398C131.022 117.553 126.4 118.897 122.508 120.997C119.244 122.751 116.991 125.183 115.634 127.923C114.43 130.342 113.931 133.031 114.046 135.706C114.161 138.407 114.917 141.121 116.235 143.554C117.9 146.639 120.46 149.302 123.776 150.979L123.737 151.043Z" fill="white"/>
<path id="Vector_2" d="M103.368 150.877H115.889C114.404 149.353 113.149 147.638 112.163 145.794C110.525 142.76 109.59 139.368 109.437 135.975C109.296 132.544 109.949 129.1 111.498 125.964C113.252 122.405 116.145 119.268 120.305 117.028C125.004 114.493 130.675 112.893 136.244 113.968C138.164 114.34 140.059 115.018 141.89 116.094C137.025 104.137 130.816 102.485 123.071 104.533C119.217 105.558 114.929 107.401 110.294 109.411C107.593 110.576 104.764 111.805 102.05 112.868C97.2874 114.737 90.2976 115.902 84.3063 115.274C81.0418 114.929 78.0077 114.058 75.6905 112.496C73.1429 110.768 71.4403 108.284 71.1458 104.853C70.9538 102.575 71.4147 99.8863 72.7205 96.7626C74.0135 92.4228 78.635 88.2237 83.7686 83.5766C87.5708 80.1329 91.6802 76.4075 94.6886 72.2853C98.8365 66.6012 98.7469 61.57 96.5577 57.9214C95.0727 55.4507 92.6531 53.556 89.9391 52.4678C87.2379 51.3924 84.2935 51.1236 81.7075 51.9045C78.2637 52.9415 75.4601 55.9883 74.8968 61.6724C74.82 62.4789 74.3207 63.1446 73.655 63.4903C71.9396 64.3608 70.813 66.2299 70.0705 68.1758H70.1217C73.0149 66.9468 76.3178 66.742 78.8014 67.0492C80.1456 67.2157 80.9777 67.1133 81.5282 66.7804L81.6178 66.7292C82.1939 66.3323 82.7444 65.5514 83.3973 64.4504C84.1654 63.1702 85.2408 62.4917 86.4314 62.2869C87.3787 62.1205 88.3645 62.2869 89.2734 62.7222C90.0671 63.0934 90.7969 63.6567 91.3985 64.3352C92.6019 65.705 93.37 67.6509 93.1012 69.648C92.7299 72.3109 88.2493 76.2795 82.9749 80.9266C79.0447 84.3959 74.628 88.3005 71.4275 91.9747C68.3294 95.5336 66.6011 99.2334 66.1147 102.741C65.7818 105.122 66.025 107.401 66.806 109.475C67.5741 111.536 68.8927 113.418 70.6978 114.993C73.3478 117.297 77.0603 118.948 81.7203 119.601C101.896 122.392 102.178 127.884 103.036 144.642C103.112 146.255 103.202 147.996 103.343 150.044L103.394 150.915L103.368 150.877Z" fill="white"/>
</g>
</g>
</svg>
