<svg width="16" height="17" viewBox="0 0 16 17" fill="none" xmlns="http://www.w3.org/2000/svg">
<path id="Vector" d="M7.96189 0.62155C4.15392 0.624762 0.653223 3.80295 0.293959 7.6047C-0.0915599 10.8427 1.72781 14.2271 4.69727 15.6025C7.45494 16.9525 10.9945 16.5253 13.2816 14.4466C15.6087 12.4297 16.6255 8.99182 15.6033 6.05884C14.6313 3.06655 11.7624 0.775728 8.60283 0.637076C8.38947 0.623101 8.17564 0.620485 7.96189 0.62155ZM8.11787 3.09048C10.9223 3.00878 13.4933 5.48617 13.5262 8.29619C13.6474 10.8669 11.7193 13.3912 9.16155 13.8222C6.68655 14.3188 3.94153 12.8861 3.07522 10.4794C2.14258 8.09945 3.09408 5.08979 5.36418 3.84066C6.19419 3.35252 7.15512 3.08928 8.11787 3.09048ZM6.17033 5.02294L4.64554 6.55019L6.60767 8.51551L4.68098 10.4453L6.18157 11.9483L8.1083 10.0185L10.0716 11.985L11.5964 10.4577L9.63309 8.49127L11.5599 6.56139L10.0593 5.05838C9.417 5.70166 8.77474 6.34495 8.13249 6.98824L6.17033 5.02295V5.02294Z" fill="#301F4A"/>
</svg>
