<svg width="20" height="20" viewBox="0 0 20 20" fill="none" xmlns="http://www.w3.org/2000/svg">
<g id="email">
<g id="Group">
<g id="Group_2">
<path id="Vector" d="M18.2422 2.96875H1.75781C0.790547 2.96875 0 3.75582 0 4.72656V15.2734C0 16.2445 0.791055 17.0312 1.75781 17.0312H18.2422C19.2095 17.0312 20 16.2442 20 15.2734V4.72656C20 3.75559 19.2091 2.96875 18.2422 2.96875ZM17.9723 4.14062C17.4039 4.71082 10.7283 11.4082 10.4541 11.6834C10.225 11.9131 9.77512 11.9133 9.54594 11.6834L2.02773 4.14062H17.9723ZM1.17188 15.058V4.94199L6.21348 10L1.17188 15.058ZM2.02773 15.8594L7.04078 10.83L8.71598 12.5107C9.40246 13.1994 10.5978 13.1991 11.2841 12.5107L12.9593 10.83L17.9723 15.8594H2.02773ZM18.8281 15.058L13.7865 10L18.8281 4.94199V15.058Z" fill="#FA5C98"/>
</g>
</g>
</g>
</svg>
