<svg width="21" height="21" viewBox="0 0 21 21" fill="none" xmlns="http://www.w3.org/2000/svg">
<g id="ant-design:heart-filled">
<path id="Vector" d="M18.1714 6.09098C17.9084 5.48205 17.5292 4.93025 17.0551 4.46645C16.5805 4.00128 16.021 3.63161 15.407 3.37755C14.7703 3.11306 14.0874 2.97767 13.3979 2.97926C12.4306 2.97926 11.4869 3.24413 10.6668 3.74444C10.4706 3.86412 10.2842 3.99557 10.1076 4.1388C9.93107 3.99557 9.74468 3.86412 9.54848 3.74444C8.72836 3.24413 7.78465 2.97926 6.81738 2.97926C6.12088 2.97926 5.44595 3.11268 4.8083 3.37755C4.19224 3.63261 3.63699 3.9995 3.16023 4.46645C2.68542 4.92972 2.30613 5.48166 2.04385 6.09098C1.77114 6.72471 1.63184 7.39767 1.63184 8.09025C1.63184 8.7436 1.76525 9.42441 2.03012 10.117C2.25183 10.6958 2.56967 11.2961 2.9758 11.9024C3.61933 12.8618 4.50419 13.8624 5.60291 14.8768C7.42364 16.5582 9.22671 17.7197 9.30323 17.7668L9.76822 18.065C9.97423 18.1965 10.2391 18.1965 10.4451 18.065L10.9101 17.7668C10.9866 17.7178 12.7877 16.5582 14.6104 14.8768C15.7091 13.8624 16.594 12.8618 17.2375 11.9024C17.6437 11.2961 17.9635 10.6958 18.1832 10.117C18.4481 9.42441 18.5815 8.7436 18.5815 8.09025C18.5835 7.39767 18.4442 6.72471 18.1714 6.09098Z" fill="#FA5C98"/>
</g>
</svg>
