<svg width="23" height="23" viewBox="0 0 23 23" fill="none" xmlns="http://www.w3.org/2000/svg">
<g id="location 1" clip-path="url(#clip0_1_57)">
<g id="Group">
<path id="Vector" d="M11.5 0C7.04303 0 3.41699 3.62604 3.41699 8.08302C3.41699 9.70182 3.89151 11.2573 4.79079 12.5923L11.5 23L18.2092 12.5923C19.1085 11.2573 19.583 9.70182 19.583 8.08302C19.583 3.62604 15.957 0 11.5 0ZM11.5 12.1245C9.27152 12.1245 7.4585 10.3115 7.4585 8.08302C7.4585 5.85453 9.27152 4.04151 11.5 4.04151C13.7285 4.04151 15.5415 5.85453 15.5415 8.08302C15.5415 10.3115 13.7285 12.1245 11.5 12.1245Z" fill="white"/>
</g>
</g>
<defs>
<clipPath id="clip0_1_57">
<rect width="23" height="23" fill="white"/>
</clipPath>
</defs>
</svg>
