<svg width="261" height="204" viewBox="0 0 261 204" fill="none" xmlns="http://www.w3.org/2000/svg">
<g clip-path="url(#clip0_1_138)">
<path d="M130.45 49.0258C130.45 41.4653 135.196 35.0472 141.862 32.4934C139.909 31.7542 137.788 31.351 135.567 31.351C125.77 31.351 117.859 39.2811 117.859 49.0258C117.859 58.8041 125.804 66.7006 135.567 66.7006C137.788 66.7006 139.909 66.2974 141.862 65.5582C135.196 63.0044 130.45 56.5863 130.45 49.0258Z" fill="#8E5B42"/>
<path d="M140.179 76.0757L146.979 93.0785" stroke="#8E5B42" stroke-width="1.83321" stroke-miterlimit="10" stroke-linecap="round"/>
<path d="M120.62 75.1349L114.021 93.1122" stroke="#8E5B42" stroke-width="1.83321" stroke-miterlimit="10" stroke-linecap="round"/>
<path d="M129.507 19.5565L128.935 0.671997" stroke="#8E5B42" stroke-width="1.83321" stroke-miterlimit="10" stroke-linecap="round"/>
<path d="M148.258 26.0418L160.209 11.0552" stroke="#8E5B42" stroke-width="1.83321" stroke-miterlimit="10" stroke-linecap="round"/>
<path d="M159.334 42.7085L177.311 39.2139" stroke="#8E5B42" stroke-width="1.83321" stroke-miterlimit="10" stroke-linecap="round"/>
<path d="M156.405 62.9371L172.059 71.7074" stroke="#8E5B42" stroke-width="1.83321" stroke-miterlimit="10" stroke-linecap="round"/>
<path d="M106.817 61.6938L88.8403 71.8418" stroke="#8E5B42" stroke-width="1.83321" stroke-miterlimit="10" stroke-linecap="round"/>
<path d="M103.888 43.2798L83.4878 39.382" stroke="#8E5B42" stroke-width="1.83321" stroke-miterlimit="10" stroke-linecap="round"/>
<path d="M113.483 27.3187L100.488 11.1896" stroke="#8E5B42" stroke-width="1.83321" stroke-miterlimit="10" stroke-linecap="round"/>
<path d="M136.543 26.6131C136.476 26.6131 136.408 26.6131 136.341 26.5795C135.971 26.4787 135.769 26.109 135.87 25.7394L136.139 24.7985C136.24 24.4289 136.61 24.2273 136.981 24.3281C137.351 24.4289 137.553 24.7985 137.452 25.1682L137.183 26.109C137.115 26.4451 136.846 26.6131 136.543 26.6131Z" fill="#8E5B42"/>
<path d="M137.351 23.8913C137.283 23.8913 137.216 23.8913 137.149 23.8577C136.779 23.7569 136.577 23.3872 136.678 23.0176L137.182 21.2031C137.283 20.8334 137.654 20.6318 138.024 20.7326C138.394 20.8334 138.596 21.2031 138.495 21.5727L137.99 23.3872C137.923 23.6896 137.654 23.8913 137.351 23.8913ZM138.394 20.2958C138.327 20.2958 138.26 20.2958 138.192 20.2622C137.822 20.1614 137.62 19.7918 137.721 19.4221L138.226 17.6076C138.327 17.238 138.697 17.0364 139.068 17.1372C139.438 17.238 139.64 17.6076 139.539 17.9772L139.034 19.7918C138.967 20.0942 138.697 20.2958 138.394 20.2958ZM139.438 16.7004C139.371 16.7004 139.303 16.7004 139.236 16.6668C138.866 16.5659 138.664 16.1963 138.765 15.8267L139.27 14.0122C139.371 13.6425 139.741 13.4409 140.111 13.5417C140.482 13.6425 140.684 14.0122 140.583 14.3818L140.078 16.1963C140.01 16.4987 139.741 16.7004 139.438 16.7004Z" fill="#8E5B42"/>
<path d="M140.482 13.1049C140.414 13.1049 140.347 13.1049 140.28 13.0713C139.909 12.9705 139.707 12.6009 139.808 12.2312L140.078 11.2904C140.179 10.9207 140.549 10.7191 140.919 10.8199C141.29 10.9207 141.492 11.2904 141.391 11.66L141.121 12.6009C141.054 12.9033 140.785 13.1049 140.482 13.1049Z" fill="#8E5B42"/>
<path d="M149.167 36.1225C148.965 36.1225 148.729 36.0217 148.595 35.8201C148.393 35.5176 148.46 35.0808 148.797 34.8792L149.605 34.3416C149.908 34.1399 150.345 34.2071 150.547 34.5432C150.749 34.8456 150.682 35.2824 150.345 35.484L149.537 36.0217C149.403 36.0889 149.268 36.1225 149.167 36.1225Z" fill="#8E5B42"/>
<path d="M151.557 34.5431C151.355 34.5431 151.12 34.4423 150.985 34.2407C150.783 33.9383 150.85 33.5015 151.187 33.2998L152.769 32.2582C153.072 32.0565 153.51 32.1238 153.712 32.4598C153.914 32.7622 153.846 33.199 153.51 33.4006L151.928 34.4423C151.827 34.5095 151.692 34.5431 151.557 34.5431ZM154.722 32.4262C154.52 32.4262 154.284 32.3254 154.149 32.1238C153.947 31.8213 154.015 31.3845 154.351 31.1829L155.934 30.1412C156.237 29.9396 156.674 30.0068 156.876 30.3428C157.078 30.6453 157.011 31.0821 156.674 31.2837L155.092 32.3254C154.991 32.3926 154.856 32.4262 154.722 32.4262ZM157.92 30.3428C157.718 30.3428 157.482 30.242 157.348 30.0404C157.146 29.738 157.213 29.3012 157.55 29.0995L159.132 28.0579C159.435 27.8563 159.872 27.9235 160.074 28.2595C160.276 28.5619 160.209 28.9987 159.872 29.2003L158.29 30.242C158.155 30.3092 158.054 30.3428 157.92 30.3428Z" fill="#8E5B42"/>
<path d="M161.084 28.2259C160.882 28.2259 160.647 28.1251 160.512 27.9235C160.31 27.621 160.377 27.1842 160.714 26.9826L161.522 26.445C161.825 26.2433 162.263 26.3105 162.465 26.6466C162.667 26.949 162.599 27.3858 162.263 27.5874L161.455 28.1251C161.354 28.1923 161.219 28.2259 161.084 28.2259Z" fill="#8E5B42"/>
<path d="M154.452 51.5796C154.419 51.5796 154.385 51.5796 154.385 51.5796L153.409 51.4788C153.039 51.4452 152.769 51.1092 152.837 50.7395C152.87 50.3699 153.207 50.1011 153.577 50.1683L154.553 50.2691C154.924 50.3027 155.193 50.6387 155.126 51.0083C155.058 51.3444 154.789 51.5796 154.452 51.5796Z" fill="#8E5B42"/>
<path d="M165.191 52.8901C165.158 52.8901 165.124 52.8901 165.124 52.8901L163.34 52.6885C162.97 52.6549 162.7 52.3189 162.768 51.9493C162.801 51.5796 163.138 51.3108 163.508 51.378L165.292 51.5796C165.663 51.6132 165.932 51.9492 165.865 52.3189C165.831 52.6213 165.528 52.8901 165.191 52.8901ZM161.623 52.4533C161.589 52.4533 161.556 52.4533 161.556 52.4533L159.771 52.2517C159.401 52.2181 159.132 51.882 159.199 51.5124C159.233 51.1428 159.569 50.874 159.94 50.9412L161.724 51.1428C162.094 51.1764 162.364 51.5124 162.296 51.882C162.229 52.1845 161.926 52.4533 161.623 52.4533ZM158.021 52.0165C157.987 52.0165 157.954 52.0165 157.954 52.0165L156.169 51.8148C155.799 51.7812 155.53 51.4452 155.597 51.0756C155.631 50.706 155.967 50.4371 156.338 50.5043L158.122 50.706C158.492 50.7396 158.761 51.0756 158.694 51.4452C158.66 51.7476 158.357 52.0165 158.021 52.0165Z" fill="#8E5B42"/>
<path d="M167.952 53.2261C167.918 53.2261 167.885 53.2261 167.885 53.2261L166.908 53.1253C166.538 53.0917 166.269 52.7556 166.336 52.386C166.37 52.0164 166.706 51.7476 167.077 51.8148L168.053 51.9156C168.423 51.9492 168.693 52.2852 168.625 52.6548C168.592 52.9573 168.289 53.2261 167.952 53.2261Z" fill="#8E5B42"/>
<path d="M146.945 66.8014C146.777 66.8014 146.575 66.7342 146.44 66.5998L145.767 65.8942C145.498 65.6253 145.531 65.1885 145.801 64.9533C146.07 64.6845 146.508 64.7181 146.743 64.9869L147.417 65.6926C147.686 65.9614 147.652 66.3982 147.383 66.6334C147.282 66.7342 147.114 66.8014 146.945 66.8014Z" fill="#8E5B42"/>
<path d="M154.149 74.5299C153.981 74.5299 153.779 74.4627 153.644 74.3283L152.433 73.0514C152.163 72.7826 152.197 72.3458 152.466 72.1106C152.736 71.8754 153.173 71.8754 153.409 72.1442L154.621 73.4211C154.89 73.6899 154.856 74.1267 154.587 74.3619C154.452 74.4963 154.284 74.5299 154.149 74.5299ZM151.726 71.9762C151.557 71.9762 151.355 71.909 151.221 71.7746L150.009 70.4977C149.739 70.2288 149.773 69.792 150.042 69.5568C150.312 69.3216 150.749 69.3216 150.985 69.5904L152.197 70.8673C152.466 71.1361 152.433 71.5729 152.163 71.8082C152.062 71.909 151.894 71.9762 151.726 71.9762ZM149.335 69.3888C149.167 69.3888 148.965 69.3216 148.83 69.1872L147.619 67.9103C147.349 67.6415 147.383 67.2046 147.652 66.9694C147.922 66.7006 148.359 66.7342 148.595 67.003L149.807 68.2799C150.076 68.5487 150.042 68.9856 149.773 69.2208C149.672 69.3216 149.504 69.3888 149.335 69.3888Z" fill="#8E5B42"/>
<path d="M156.001 76.5461C155.833 76.5461 155.631 76.4789 155.496 76.3445L154.823 75.6388C154.553 75.37 154.587 74.9332 154.856 74.6979C155.126 74.4627 155.563 74.4627 155.799 74.7315L156.472 75.4372C156.742 75.706 156.708 76.1428 156.439 76.3781C156.304 76.4789 156.169 76.5461 156.001 76.5461Z" fill="#8E5B42"/>
<path d="M130.82 73.0515C130.483 73.0515 130.18 72.7826 130.147 72.413L130.079 71.4386C130.046 71.0689 130.349 70.7329 130.719 70.7329C131.089 70.6993 131.426 71.0017 131.426 71.3713L131.493 72.3458C131.527 72.7154 131.224 73.0515 130.854 73.0515H130.82Z" fill="#8E5B42"/>
<path d="M131.56 83.8378C131.224 83.8378 130.921 83.569 130.887 83.1994L130.752 81.3848C130.719 81.0152 131.022 80.6792 131.392 80.6792C131.762 80.6456 132.099 80.948 132.099 81.3176L132.234 83.1322C132.267 83.5018 131.964 83.8378 131.594 83.8378H131.56ZM131.291 80.2424C130.954 80.2424 130.651 79.9735 130.618 79.6039L130.483 77.7894C130.449 77.4198 130.752 77.0837 131.123 77.0837C131.493 77.0501 131.83 77.3525 131.83 77.7222L131.964 79.5367C131.998 79.9063 131.695 80.2424 131.325 80.2424C131.325 80.2424 131.325 80.2424 131.291 80.2424ZM131.055 76.6469C130.719 76.6469 130.416 76.3781 130.382 76.0085L130.247 74.1939C130.214 73.8243 130.517 73.4883 130.887 73.4883C131.257 73.4547 131.594 73.7571 131.594 74.1267L131.729 75.9412C131.762 76.3109 131.459 76.6469 131.089 76.6469C131.089 76.6469 131.089 76.6469 131.055 76.6469Z" fill="#8E5B42"/>
<path d="M131.729 86.5932C131.392 86.5932 131.089 86.3244 131.055 85.9548L130.988 84.9803C130.954 84.6107 131.257 84.2746 131.628 84.2746C131.998 84.241 132.335 84.5435 132.335 84.9131L132.402 85.8876C132.436 86.2572 132.133 86.5932 131.762 86.5932C131.762 86.5932 131.762 86.5932 131.729 86.5932Z" fill="#8E5B42"/>
<path d="M115.536 67.3391C115.402 67.3391 115.233 67.3055 115.132 67.2047C114.829 66.9695 114.796 66.5663 115.031 66.2639L115.637 65.491C115.873 65.1886 116.277 65.155 116.58 65.3902C116.883 65.6254 116.917 66.0286 116.681 66.3311L116.075 67.1039C115.94 67.2383 115.738 67.3391 115.536 67.3391Z" fill="#8E5B42"/>
<path d="M108.5 76.311C108.366 76.311 108.197 76.2774 108.096 76.1765C107.793 75.9413 107.76 75.5381 107.995 75.2357L109.174 73.7236C109.409 73.4211 109.813 73.3876 110.116 73.6228C110.419 73.858 110.453 74.2612 110.217 74.5636L109.039 76.0757C108.904 76.2437 108.702 76.311 108.5 76.311ZM110.857 73.3203C110.722 73.3203 110.554 73.2867 110.453 73.1859C110.15 72.9507 110.116 72.5475 110.352 72.2451L111.53 70.733C111.766 70.4305 112.17 70.3969 112.473 70.6322C112.776 70.8674 112.809 71.2706 112.574 71.573L111.396 73.0851C111.261 73.2195 111.059 73.3203 110.857 73.3203ZM113.213 70.3297C113.079 70.3297 112.91 70.2961 112.809 70.1953C112.506 69.9601 112.473 69.5569 112.708 69.2545L113.887 67.7424C114.122 67.4399 114.526 67.4063 114.829 67.6415C115.132 67.8768 115.166 68.28 114.93 68.5824L113.752 70.0945C113.584 70.2289 113.415 70.3297 113.213 70.3297Z" fill="#8E5B42"/>
<path d="M106.716 78.596C106.582 78.596 106.413 78.5624 106.312 78.4616C106.009 78.2263 105.976 77.8231 106.211 77.5207L106.817 76.7478C107.053 76.4454 107.457 76.4118 107.76 76.647C108.063 76.8823 108.096 77.2855 107.861 77.5879L107.255 78.3608C107.12 78.4952 106.918 78.596 106.716 78.596Z" fill="#8E5B42"/>
<path d="M108.063 53.1925C107.76 53.1925 107.457 52.9573 107.389 52.6549C107.322 52.2853 107.558 51.9492 107.928 51.8484L108.871 51.6468C109.241 51.5796 109.578 51.8148 109.679 52.1845C109.746 52.5541 109.51 52.8901 109.14 52.9909L108.197 53.1925C108.164 53.1925 108.096 53.1925 108.063 53.1925Z" fill="#8E5B42"/>
<path d="M95.8762 55.6791C95.5732 55.6791 95.2702 55.4439 95.2029 55.1414C95.1355 54.7718 95.3712 54.4358 95.7415 54.335L97.7614 53.9318C98.1317 53.8646 98.4683 54.0998 98.5693 54.4694C98.6366 54.839 98.401 55.175 98.0307 55.2759L96.0108 55.6791C95.9772 55.6791 95.9098 55.6791 95.8762 55.6791ZM99.9496 54.8726C99.6466 54.8726 99.3436 54.6374 99.2763 54.335C99.2089 53.9654 99.4446 53.6293 99.8149 53.5285L101.835 53.1253C102.205 53.0581 102.542 53.2933 102.643 53.6629C102.71 54.0326 102.474 54.3686 102.104 54.4694L100.084 54.8726C100.017 54.839 99.9832 54.8726 99.9496 54.8726ZM103.989 54.0326C103.686 54.0326 103.383 53.7974 103.316 53.4949C103.249 53.1253 103.484 52.7893 103.855 52.6885L105.874 52.2852C106.245 52.218 106.581 52.4533 106.682 52.8229C106.75 53.1925 106.514 53.5285 106.144 53.6293L104.124 54.0326C104.09 54.0326 104.057 54.0326 103.989 54.0326Z" fill="#8E5B42"/>
<path d="M92.8801 56.3175C92.5771 56.3175 92.2741 56.0823 92.2068 55.7799C92.1394 55.4103 92.3751 55.0742 92.7454 54.9734L93.688 54.7718C94.0583 54.7046 94.395 54.9398 94.496 55.3095C94.5633 55.6791 94.3276 56.0151 93.9573 56.1159L93.0147 56.3175C92.9811 56.3175 92.9474 56.3175 92.8801 56.3175Z" fill="#8E5B42"/>
<path d="M111.295 38.3402C111.194 38.3402 111.059 38.3066 110.958 38.273L110.116 37.8025C109.78 37.6345 109.679 37.2313 109.847 36.8953C110.015 36.5592 110.419 36.4584 110.756 36.6264L111.598 37.0969C111.934 37.2649 112.035 37.6681 111.867 38.0041C111.766 38.2058 111.53 38.3402 111.295 38.3402Z" fill="#8E5B42"/>
<path d="M108.635 36.8617C108.534 36.8617 108.399 36.8281 108.298 36.7945L106.481 35.7864C106.144 35.6184 106.043 35.2152 106.211 34.8792C106.38 34.5432 106.784 34.4423 107.12 34.6104L108.938 35.6184C109.275 35.7864 109.376 36.1897 109.207 36.5257C109.106 36.7273 108.871 36.8617 108.635 36.8617ZM104.966 34.8456C104.865 34.8456 104.73 34.812 104.629 34.7784L102.811 33.7703C102.475 33.6023 102.374 33.1991 102.542 32.863C102.71 32.527 103.114 32.4262 103.451 32.5942L105.269 33.6023C105.605 33.7703 105.706 34.1735 105.538 34.5095C105.437 34.7448 105.201 34.8456 104.966 34.8456ZM101.296 32.863C101.195 32.863 101.061 32.8294 100.96 32.7958L99.1418 31.7878C98.8051 31.6197 98.7041 31.2165 98.8724 30.8805C99.0408 30.5445 99.4447 30.4437 99.7814 30.6117L101.599 31.6197C101.936 31.7878 102.037 32.191 101.869 32.527C101.768 32.7286 101.532 32.863 101.296 32.863Z" fill="#8E5B42"/>
<path d="M97.6606 30.8469C97.5596 30.8469 97.4249 30.8133 97.3239 30.7797L96.4823 30.3092C96.1457 30.1412 96.0447 29.738 96.213 29.402C96.3813 29.066 96.7853 28.9651 97.122 29.1332L97.9636 29.6036C98.3002 29.7716 98.4012 30.1748 98.2329 30.5109C98.1319 30.7125 97.8962 30.8469 97.6606 30.8469Z" fill="#8E5B42"/>
<path d="M122.505 28.562C122.236 28.562 121.966 28.3939 121.865 28.1251L121.529 27.2179C121.394 26.8818 121.562 26.4786 121.933 26.3442C122.269 26.2098 122.673 26.3778 122.808 26.7474L123.145 27.6547C123.279 27.9907 123.111 28.3939 122.741 28.5283C122.64 28.562 122.572 28.562 122.505 28.562Z" fill="#8E5B42"/>
<path d="M121.394 25.7393C121.125 25.7393 120.855 25.5713 120.754 25.3025L120.014 23.3536C119.879 23.0175 120.047 22.6143 120.418 22.4799C120.754 22.3455 121.158 22.5135 121.293 22.8831L122.034 24.8321C122.168 25.1681 122 25.5713 121.63 25.7057C121.562 25.7057 121.495 25.7393 121.394 25.7393ZM119.913 21.8415C119.643 21.8415 119.374 21.6735 119.273 21.4046L118.532 19.4557C118.398 19.1197 118.566 18.7164 118.936 18.582C119.273 18.4476 119.677 18.6156 119.812 18.9853L120.552 20.9342C120.687 21.2702 120.519 21.6735 120.148 21.8079C120.081 21.8079 120.014 21.8415 119.913 21.8415ZM118.431 17.9436C118.162 17.9436 117.893 17.7756 117.792 17.5068L117.051 15.5578C116.917 15.2218 117.085 14.8186 117.455 14.6842C117.792 14.5497 118.196 14.7178 118.33 15.0874L119.071 17.0363C119.206 17.3723 119.037 17.7756 118.667 17.91C118.6 17.9436 118.499 17.9436 118.431 17.9436Z" fill="#8E5B42"/>
<path d="M116.95 14.0793C116.681 14.0793 116.412 13.9113 116.311 13.6425L115.974 12.7352C115.839 12.3992 116.008 11.9959 116.378 11.8615C116.715 11.7271 117.119 11.8951 117.253 12.2648L117.59 13.172C117.725 13.508 117.556 13.9113 117.186 14.0457C117.119 14.0457 117.018 14.0793 116.95 14.0793Z" fill="#8E5B42"/>
<path d="M68.9784 109.51C68.9784 98.9925 67.9685 94.3554 63.6258 86.0892C60.0237 79.2343 57.8355 71.573 56.9939 63.8444C56.6236 60.1818 56.3879 56.0823 57.3979 52.5204C58.2395 49.597 59.0137 45.7328 62.6495 47.7825C65.8813 49.597 66.7229 55.2086 67.7328 58.4344C69.0457 62.5339 70.3923 66.6334 71.9409 70.6657C73.4221 74.4964 74.6004 78.2262 76.3846 81.9561C78.2024 85.686 80.1213 89.3822 82.1075 93.0449C85.9453 100.068 91.5672 106.083 96.8189 112.064C99.3774 114.987 100.892 118.852 102.272 122.447C103.686 126.11 104.764 129.907 105.471 133.771C106.986 141.802 106.716 149.699 105.774 157.763C103.754 175.136 100.623 200.909 100.118 202.958C100.118 202.958 61.3366 199.396 62.1445 196.607C67.9011 176.345 66.8576 184.242 73.3884 164.013C74.7014 159.678 73.0855 154 70.0893 149.799C56.6236 131.62 44.7737 125.438 42.6192 102.622C42.3499 94.053 43.5281 85.4172 44.6727 76.8149C47.8372 53.3941 53.1561 40.9948 57.5998 17.7756C58.0711 15.3226 59.2831 11.6599 60.5623 9.50939C62.5148 6.18276 65.7803 5.04028 65.309 13.1048C64.3664 28.8644 62.1445 30.9141 61.2693 47.3121" stroke="#8E5B42" stroke-width="2.74981" stroke-miterlimit="10" stroke-linecap="round" stroke-linejoin="round"/>
<path d="M62.5823 47.2449C63.2556 42.2045 65.3428 36.0553 66.925 31.2501C68.3726 26.781 69.8201 22.3119 71.6043 17.9436L73.7925 11.8616C74.2638 10.5847 75.6441 9.87903 76.957 10.2487C78.4045 10.6519 79.2125 12.2312 78.6739 13.6425C76.0817 20.531 69.9211 41.8349 68.5745 60.8538" stroke="#8E5B42" stroke-width="2.74981" stroke-miterlimit="10" stroke-linecap="round" stroke-linejoin="round"/>
<path d="M77.933 15.7594C77.933 15.7594 81.9391 16.297 81.1311 20.3965C80.3232 24.496 72.6814 50.8403 71.1328 68.3807" stroke="#8E5B42" stroke-width="2.74981" stroke-miterlimit="10" stroke-linecap="round" stroke-linejoin="round"/>
<path d="M77.2935 35.5176C77.2935 35.5176 80.4916 36.156 80.0876 40.4571C79.6836 44.7582 75.6102 64.8525 73.9607 74.7988" stroke="#8E5B42" stroke-width="2.74981" stroke-miterlimit="10" stroke-linecap="round" stroke-linejoin="round"/>
<path d="M191.82 109.51C191.82 98.9925 192.83 94.3554 197.172 86.0892C200.774 79.2343 202.963 71.573 203.804 63.8444C204.175 60.1818 204.41 56.0823 203.4 52.5204C202.559 49.597 201.784 45.7328 198.149 47.7825C194.917 49.597 194.075 55.2086 193.065 58.4344C191.752 62.5339 190.406 66.6334 188.857 70.6657C187.376 74.4964 186.198 78.2262 184.414 81.9561C182.596 85.686 180.677 89.3822 178.691 93.0449C174.853 100.068 169.231 106.083 163.979 112.064C161.421 114.987 159.906 118.852 158.526 122.447C157.112 126.11 156.034 129.907 155.327 133.771C153.813 141.802 154.082 149.699 155.025 157.763C157.044 175.136 160.175 200.909 160.68 202.958C160.68 202.958 199.461 199.396 198.654 196.607C192.897 176.345 193.941 184.242 187.41 164.013C186.097 159.678 187.713 154 190.709 149.799C204.175 131.62 216.024 125.438 218.179 102.622C218.448 94.053 217.27 85.4172 216.125 76.8149C212.961 53.3941 207.642 40.9948 203.198 17.7756C202.727 15.3226 201.515 11.6599 200.236 9.50939C198.216 6.18276 194.917 5.04028 195.422 13.1048C196.364 28.8644 198.586 30.9141 199.462 47.3121" stroke="#8E5B42" stroke-width="2.74981" stroke-miterlimit="10" stroke-linecap="round" stroke-linejoin="round"/>
<path d="M198.216 47.2449C197.543 42.2045 195.455 36.0553 193.873 31.2501C192.426 26.781 190.978 22.3119 189.194 17.9436L187.006 11.8616C186.534 10.5847 185.154 9.87903 183.841 10.2487C182.394 10.6519 181.586 12.2312 182.124 13.6425C184.716 20.531 190.877 41.8349 192.224 60.8538" stroke="#8E5B42" stroke-width="2.74981" stroke-miterlimit="10" stroke-linecap="round" stroke-linejoin="round"/>
<path d="M182.865 15.7594C182.865 15.7594 178.859 16.297 179.667 20.3965C180.475 24.496 188.117 50.8403 189.665 68.3807" stroke="#8E5B42" stroke-width="2.74981" stroke-miterlimit="10" stroke-linecap="round" stroke-linejoin="round"/>
<path d="M183.504 35.5176C183.504 35.5176 180.306 36.156 180.71 40.4571C181.114 44.7582 185.188 64.8525 186.837 74.7988" stroke="#8E5B42" stroke-width="2.74981" stroke-miterlimit="10" stroke-linecap="round" stroke-linejoin="round"/>
<path d="M6.59827 35.5177C6.59827 35.5177 5.79033 46.0688 0.67334 46.0688C0.67334 46.0688 6.59827 50.0675 6.59827 56.956C6.59827 50.0675 12.5232 46.0688 12.5232 46.0688C7.40622 46.1025 6.59827 35.5177 6.59827 35.5177Z" stroke="#8E5B42" stroke-width="1.83321" stroke-miterlimit="10" stroke-linecap="round" stroke-linejoin="round"/>
<path d="M47.6014 142.709C47.6014 142.709 46.7935 153.26 41.6765 153.26C41.6765 153.26 47.6014 157.259 47.6014 164.148C47.6014 157.259 53.5264 153.26 53.5264 153.26C48.4094 153.294 47.6014 142.709 47.6014 142.709Z" stroke="#8E5B42" stroke-width="1.83321" stroke-miterlimit="10" stroke-linecap="round" stroke-linejoin="round"/>
<path d="M213.5 142.709C213.5 142.709 212.692 153.26 207.575 153.26C207.575 153.26 213.5 157.259 213.5 164.148C213.5 157.259 219.425 153.26 219.425 153.26C214.308 153.294 213.5 142.709 213.5 142.709Z" stroke="#8E5B42" stroke-width="1.83321" stroke-miterlimit="10" stroke-linecap="round" stroke-linejoin="round"/>
<path d="M254.402 35.5177C254.402 35.5177 253.594 46.0688 248.477 46.0688C248.477 46.0688 254.402 50.0675 254.402 56.956C254.402 50.0675 260.327 46.0688 260.327 46.0688C255.176 46.1025 254.402 35.5177 254.402 35.5177Z" stroke="#8E5B42" stroke-width="1.83321" stroke-miterlimit="10" stroke-linecap="round" stroke-linejoin="round"/>
</g>
<defs>
<clipPath id="clip0_1_138">
<rect width="261" height="204" fill="white"/>
</clipPath>
</defs>
</svg>
