<svg width="100" height="20" viewBox="0 0 100 20" fill="none" xmlns="http://www.w3.org/2000/svg">
<g id="Group 14144">
<path id="Star 1" d="M8.93845 1.70734C9.42755 0.920702 10.5724 0.9207 11.0615 1.70734L13.082 4.95693C13.2541 5.23371 13.5274 5.43233 13.8438 5.51046L17.5587 6.42784C18.458 6.64991 18.8118 7.73877 18.2148 8.44701L15.7486 11.3727C15.5386 11.6219 15.4341 11.9433 15.4576 12.2684L15.7331 16.0849C15.7998 17.0088 14.8736 17.6818 14.0155 17.3329L10.4709 15.8915C10.169 15.7687 9.83104 15.7687 9.52914 15.8915L5.98451 17.3329C5.12644 17.6818 4.2002 17.0088 4.26689 16.0849L4.54238 12.2684C4.56585 11.9433 4.46142 11.6219 4.25137 11.3727L1.78518 8.44702C1.18818 7.73877 1.54197 6.64991 2.44125 6.42784L6.15615 5.51046C6.47255 5.43233 6.74593 5.23371 6.91801 4.95693L8.93845 1.70734Z" fill="#FFBB0E"/>
<path id="Star 2" d="M28.9385 1.70734C29.4275 0.920702 30.5724 0.9207 31.0615 1.70734L33.082 4.95693C33.2541 5.23371 33.5274 5.43233 33.8438 5.51046L37.5587 6.42784C38.458 6.64991 38.8118 7.73877 38.2148 8.44701L35.7486 11.3727C35.5386 11.6219 35.4341 11.9433 35.4576 12.2684L35.7331 16.0849C35.7998 17.0088 34.8736 17.6818 34.0155 17.3329L30.4709 15.8915C30.169 15.7687 29.831 15.7687 29.5291 15.8915L25.9845 17.3329C25.1264 17.6818 24.2002 17.0088 24.2669 16.0849L24.5424 12.2684C24.5658 11.9433 24.4614 11.6219 24.2514 11.3727L21.7852 8.44702C21.1882 7.73877 21.542 6.64991 22.4412 6.42784L26.1561 5.51046C26.4725 5.43233 26.7459 5.23371 26.918 4.95693L28.9385 1.70734Z" fill="#FFBB0E"/>
<path id="Star 3" d="M48.9385 1.70734C49.4275 0.920702 50.5724 0.9207 51.0615 1.70734L53.082 4.95693C53.2541 5.23371 53.5274 5.43233 53.8438 5.51046L57.5587 6.42784C58.458 6.64991 58.8118 7.73877 58.2148 8.44701L55.7486 11.3727C55.5386 11.6219 55.4341 11.9433 55.4576 12.2684L55.7331 16.0849C55.7998 17.0088 54.8736 17.6818 54.0155 17.3329L50.4709 15.8915C50.169 15.7687 49.831 15.7687 49.5291 15.8915L45.9845 17.3329C45.1264 17.6818 44.2002 17.0088 44.2669 16.0849L44.5424 12.2684C44.5658 11.9433 44.4614 11.6219 44.2514 11.3727L41.7852 8.44702C41.1882 7.73877 41.542 6.64991 42.4412 6.42784L46.1561 5.51046C46.4725 5.43233 46.7459 5.23371 46.918 4.95693L48.9385 1.70734Z" fill="#FFBB0E"/>
<path id="Star 4" d="M68.9385 1.70734C69.4275 0.920702 70.5724 0.9207 71.0615 1.70734L73.082 4.95693C73.2541 5.23371 73.5274 5.43233 73.8438 5.51046L77.5587 6.42784C78.458 6.64991 78.8118 7.73877 78.2148 8.44701L75.7486 11.3727C75.5386 11.6219 75.4341 11.9433 75.4576 12.2684L75.7331 16.0849C75.7998 17.0088 74.8736 17.6818 74.0155 17.3329L70.4709 15.8915C70.169 15.7687 69.831 15.7687 69.5291 15.8915L65.9845 17.3329C65.1264 17.6818 64.2002 17.0088 64.2669 16.0849L64.5424 12.2684C64.5658 11.9433 64.4614 11.6219 64.2514 11.3727L61.7852 8.44702C61.1882 7.73877 61.542 6.64991 62.4412 6.42784L66.1561 5.51046C66.4725 5.43233 66.7459 5.23371 66.918 4.95693L68.9385 1.70734Z" fill="#FFBB0E"/>
<path id="Star 5" d="M89.4692 2.03735C89.7138 1.64403 90.2862 1.64403 90.5308 2.03735L92.5512 5.28694C92.8093 5.7021 93.2194 6.00003 93.694 6.11724L97.4089 7.03461C97.8585 7.14565 98.0354 7.69007 97.7369 8.0442L95.2707 10.9699C94.9557 11.3437 94.799 11.8258 94.8342 12.3134L95.1097 16.1299C95.1431 16.5919 94.68 16.9284 94.2509 16.7539L90.7063 15.3125C90.2534 15.1284 89.7466 15.1284 89.2937 15.3125L85.7491 16.7539C85.32 16.9284 84.8569 16.5919 84.8903 16.1299L85.1658 12.3134C85.201 11.8258 85.0443 11.3437 84.7292 10.9699L82.2631 8.0442C81.9646 7.69008 82.1414 7.14565 82.5911 7.03461L86.306 6.11724C86.7806 6.00003 87.1907 5.7021 87.4488 5.28694L89.4692 2.03735Z" fill="#FEFDFD" stroke="#FFBB0E" stroke-width="1.25"/>
</g>
</svg>
