<svg width="80" height="16" viewBox="0 0 80 16" fill="none" xmlns="http://www.w3.org/2000/svg">
<g id="Group 14144">
<path id="Star 1" d="M7.15076 1.36588C7.54204 0.736561 8.45796 0.73656 8.84924 1.36587L10.4656 3.96555C10.6033 4.18697 10.822 4.34586 11.0751 4.40837L14.047 5.14227C14.7664 5.31993 15.0495 6.19102 14.5719 6.75761L12.5989 9.0982C12.4309 9.29755 12.3473 9.55465 12.3661 9.8147L12.5865 12.868C12.6398 13.6071 11.8988 14.1454 11.2124 13.8663L8.37669 12.7132C8.13517 12.615 7.86484 12.615 7.62331 12.7132L4.78761 13.8663C4.10115 14.1454 3.36016 13.6071 3.41351 12.868L3.63391 9.8147C3.65268 9.55465 3.56914 9.29755 3.4011 9.0982L1.42814 6.75761C0.950542 6.19102 1.23357 5.31993 1.953 5.14227L4.92492 4.40837C5.17804 4.34586 5.39674 4.18697 5.53441 3.96555L7.15076 1.36588Z" fill="#FFBB0E"/>
<path id="Star 2" d="M23.1508 1.36588C23.542 0.736561 24.458 0.73656 24.8492 1.36587L26.4656 3.96555C26.6033 4.18697 26.822 4.34586 27.0751 4.40837L30.047 5.14227C30.7664 5.31993 31.0495 6.19102 30.5719 6.75761L28.5989 9.0982C28.4309 9.29755 28.3473 9.55465 28.3661 9.8147L28.5865 12.868C28.6398 13.6071 27.8988 14.1454 27.2124 13.8663L24.3767 12.7132C24.1352 12.615 23.8648 12.615 23.6233 12.7132L20.7876 13.8663C20.1012 14.1454 19.3602 13.6071 19.4135 12.868L19.6339 9.8147C19.6527 9.55465 19.5691 9.29755 19.4011 9.0982L17.4281 6.75761C16.9505 6.19102 17.2336 5.31993 17.953 5.14227L20.9249 4.40837C21.178 4.34586 21.3967 4.18697 21.5344 3.96555L23.1508 1.36588Z" fill="#FFBB0E"/>
<path id="Star 3" d="M39.1508 1.36588C39.542 0.736561 40.458 0.73656 40.8492 1.36587L42.4656 3.96555C42.6033 4.18697 42.822 4.34586 43.0751 4.40837L46.047 5.14227C46.7664 5.31993 47.0495 6.19102 46.5719 6.75761L44.5989 9.0982C44.4309 9.29755 44.3473 9.55465 44.3661 9.8147L44.5865 12.868C44.6398 13.6071 43.8988 14.1454 43.2124 13.8663L40.3767 12.7132C40.1352 12.615 39.8648 12.615 39.6233 12.7132L36.7876 13.8663C36.1012 14.1454 35.3602 13.6071 35.4135 12.868L35.6339 9.8147C35.6527 9.55465 35.5691 9.29755 35.4011 9.0982L33.4281 6.75761C32.9505 6.19102 33.2336 5.31993 33.953 5.14227L36.9249 4.40837C37.178 4.34586 37.3967 4.18697 37.5344 3.96555L39.1508 1.36588Z" fill="#FFBB0E"/>
<path id="Star 4" d="M55.1508 1.36588C55.542 0.736561 56.458 0.73656 56.8492 1.36587L58.4656 3.96555C58.6033 4.18697 58.822 4.34586 59.0751 4.40837L62.047 5.14227C62.7664 5.31993 63.0495 6.19102 62.5719 6.75761L60.5989 9.0982C60.4309 9.29755 60.3473 9.55465 60.3661 9.8147L60.5865 12.868C60.6398 13.6071 59.8988 14.1454 59.2124 13.8663L56.3767 12.7132C56.1352 12.615 55.8648 12.615 55.6233 12.7132L52.7876 13.8663C52.1012 14.1454 51.3602 13.6071 51.4135 12.868L51.6339 9.8147C51.6527 9.55465 51.5691 9.29755 51.4011 9.0982L49.4281 6.75761C48.9505 6.19102 49.2336 5.31993 49.953 5.14227L52.9249 4.40837C53.178 4.34586 53.3967 4.18697 53.5344 3.96555L55.1508 1.36588Z" fill="#FFBB0E"/>
<path id="Star 5" d="M71.5754 1.62988C71.771 1.31522 72.229 1.31523 72.4246 1.62988L74.041 4.22956C74.2475 4.56168 74.5755 4.80003 74.9552 4.89379L77.9271 5.62769C78.2868 5.71652 78.4284 6.15206 78.1896 6.43536L76.2166 8.77595C75.9645 9.07498 75.8392 9.46062 75.8674 9.8507L76.0878 12.9039C76.1145 13.2735 75.744 13.5427 75.4007 13.4031L72.565 12.25C72.2027 12.1027 71.7973 12.1027 71.435 12.25L68.5993 13.4031C68.256 13.5427 67.8855 13.2735 67.9122 12.9039L68.1326 9.8507C68.1608 9.46062 68.0355 9.07498 67.7834 8.77595L65.8104 6.43536C65.5716 6.15206 65.7132 5.71652 66.0729 5.62769L69.0448 4.89379C69.4245 4.80003 69.7525 4.56169 69.959 4.22956L71.5754 1.62988Z" fill="#FEFDFD" stroke="#FFBB0E"/>
</g>
</svg>
