<svg width="26" height="25" viewBox="0 0 26 25" fill="none" xmlns="http://www.w3.org/2000/svg">
<g id="Group 13514">
<path id="Vector" d="M7.90652 24.4871C8.86171 24.4871 9.63604 23.7058 9.63604 22.742C9.63604 21.7782 8.86171 20.9969 7.90652 20.9969C6.95133 20.9969 6.177 21.7782 6.177 22.742C6.177 23.7058 6.95133 24.4871 7.90652 24.4871Z" fill="#301F4A"/>
<path id="Vector_2" d="M16.9001 24.4871C17.8553 24.4871 18.6296 23.7058 18.6296 22.742C18.6296 21.7782 17.8553 20.9969 16.9001 20.9969C15.945 20.9969 15.1707 21.7782 15.1707 22.742C15.1707 23.7058 15.945 24.4871 16.9001 24.4871Z" fill="#301F4A"/>
<path id="Vector_3" d="M19.3213 11.5736C17.9453 11.5736 16.6256 11.0221 15.6526 10.0403C14.6796 9.05849 14.1329 7.72689 14.1329 6.33842H4.93908L4.62778 5.34024C4.59358 5.23306 4.5342 5.13582 4.4547 5.05682C4.37519 4.97781 4.27793 4.91938 4.1712 4.88652L1.33488 4.007C1.24766 3.97996 1.15603 3.97051 1.0652 3.97921C0.974366 3.9879 0.886123 4.01456 0.805504 4.05766C0.642686 4.14472 0.520809 4.29347 0.466685 4.47119C0.41256 4.64891 0.430621 4.84105 0.516895 5.00534C0.603169 5.16963 0.750588 5.2926 0.926723 5.34722L3.41024 6.11505L6.57862 16.2156L5.45101 17.1509L5.36107 17.2417C5.08221 17.5675 4.92422 17.9809 4.91413 18.4113C4.90403 18.8417 5.04246 19.2622 5.30573 19.601C5.49428 19.8324 5.73388 20.016 6.00536 20.1372C6.27684 20.2584 6.57266 20.3138 6.86917 20.299H18.4151C18.5986 20.299 18.7745 20.2255 18.9043 20.0946C19.034 19.9637 19.1069 19.7861 19.1069 19.601C19.1069 19.4159 19.034 19.2383 18.9043 19.1074C18.7745 18.9765 18.5986 18.903 18.4151 18.903H6.75848C6.67882 18.9002 6.60121 18.8768 6.53314 18.8349C6.46507 18.7931 6.40885 18.7342 6.3699 18.6641C6.33096 18.5939 6.3106 18.5148 6.31081 18.4344C6.31102 18.3539 6.33178 18.2749 6.37108 18.2049L8.03829 16.8089H18.7126C18.8706 16.8135 19.0254 16.7634 19.1513 16.6669C19.2772 16.5704 19.3665 16.4333 19.4043 16.2784L20.5873 11.3922C20.1743 11.5052 19.7491 11.5661 19.3213 11.5736Z" fill="#301F4A"/>
<path id="Vector_4" d="M20.7051 9.82846C23.3795 9.82846 25.5476 7.64082 25.5476 4.94224C25.5476 2.24366 23.3795 0.0560303 20.7051 0.0560303C18.0306 0.0560303 15.8625 2.24366 15.8625 4.94224C15.8625 7.64082 18.0306 9.82846 20.7051 9.82846Z" fill="#FA5C98"/>
</g>
</svg>
