<svg width="18" height="19" viewBox="0 0 18 19" fill="none" xmlns="http://www.w3.org/2000/svg">
<g id="check 1">
<g id="Group">
<path id="Vector" d="M7.35309 11.1765L5.10799 8.92776L4.0957 9.93643L7.35309 13.1938L16.5938 3.9531L15.5851 2.94443L7.35309 11.1765Z" fill="#EC407A"/>
<path id="Vector_2" d="M12.3133 9.45922C12.3603 9.76652 12.3965 10.0521 12.3965 10.3667C12.3965 13.0781 10.1912 15.2799 7.48329 15.2799C4.77181 15.2799 2.57009 13.0745 2.57009 10.3667C2.57009 7.65518 4.77543 5.45346 7.48329 5.45346C8.73419 5.45346 9.7067 5.87283 10.6792 6.62843L11.6915 5.61615C10.4262 4.59301 9.1391 4.02903 7.48329 4.02903C3.98367 4.02541 1.13843 6.87066 1.13843 10.3667C1.13843 13.8627 3.98367 16.7079 7.47967 16.7079C10.9757 16.7079 13.8209 13.8627 13.8209 10.3667C13.8209 9.60021 13.6835 9.0073 13.4883 8.28424L12.3133 9.45922Z" fill="#EC407A"/>
</g>
</g>
</svg>
