<svg width="35" height="46" viewBox="0 0 35 46" fill="none" xmlns="http://www.w3.org/2000/svg">
<g id="Group">
<path id="Vector" d="M22.1958 37.7292C22.4966 37.8523 22.7062 38.1439 22.7062 38.4857C22.7062 38.9369 22.3416 39.3014 21.8905 39.3014H15.0274C15.1869 43.4484 15.1869 44.7244 15.1869 44.7426C15.1869 45.1938 14.8224 45.5584 14.3712 45.5584C13.92 45.5584 13.5555 45.1938 13.5555 44.7426C13.5555 44.7244 13.5555 43.3846 13.396 39.3014L13.3185 37.6654L13.3048 37.4558C13.2638 36.8041 13.2274 36.1342 13.2 35.5145C12.9448 30.5609 12.8628 28.9431 7.016 28.1319C5.02453 27.8539 3.41131 27.1293 2.24013 26.1085C1.3925 25.3703 0.772733 24.4725 0.399048 23.4791C0.029921 22.4856 -0.0885641 21.4056 0.0663782 20.2891C0.280563 18.7351 1.02337 17.1219 2.34038 15.6089C3.52068 14.2555 5.15213 12.8108 6.60585 11.5303C8.23731 10.0902 9.62723 8.86437 9.6728 8.50891C9.70014 8.30384 9.60445 8.0851 9.45862 7.92104C9.3857 7.83901 9.30823 7.77521 9.23532 7.74331L9.22164 7.7342C8.86619 8.32207 8.54263 8.76411 8.07781 9.06944L8.02312 9.1059C7.49905 9.42945 6.88384 9.53882 6.00887 9.43401C5.34809 9.35654 4.48223 9.40211 3.73942 9.71655C3.24269 9.92618 2.80521 10.2543 2.55457 10.751C2.42241 11.0609 2.10341 11.266 1.74796 11.2386C1.2968 11.2067 0.959575 10.8148 0.991474 10.3682C0.991474 10.3591 1.17832 6.7772 3.24269 5.33259C3.61638 2.78972 5.0382 1.38612 6.76991 0.862051C8.04591 0.479253 9.4814 0.602295 10.7711 1.11725C12.0516 1.63221 13.2046 2.53907 13.92 3.73304C15.0138 5.55134 15.1095 7.9894 13.1727 10.6416C12.0106 12.2275 10.4794 13.622 9.06215 14.9026C6.83827 16.9214 4.94706 18.6348 5.79469 20.002C6.80637 21.638 9.52242 20.0157 12.8127 18.0515C14.9135 16.7938 17.2285 15.4175 19.6119 14.579C25.003 12.6924 30.5444 13.54 34.3177 24.3313C34.4636 24.7551 34.2403 25.2199 33.8165 25.3657C33.3926 25.5116 32.9278 25.2883 32.782 24.8644C29.4462 15.3218 24.7204 14.5152 20.1496 16.1102C17.9212 16.8895 15.6837 18.2247 13.6512 19.4415C10.1878 21.5104 7.23929 23.2694 5.30252 21.8476C5.46202 22.1666 5.70354 22.4264 6.00887 22.636C6.6013 23.0325 7.41702 23.2603 8.32845 23.356C10.2014 23.552 12.3934 23.1874 13.8881 22.5996C14.9408 22.1849 15.875 21.7793 16.7728 21.3919C18.4908 20.6491 20.0767 19.961 21.5532 19.5736C25.8187 18.4434 29.0315 19.5918 31.2235 27.8585C31.2235 27.8585 27.5595 26.3455 26.3519 26.1085C24.7888 25.8078 23.1437 26.2863 21.7583 27.0336C20.5962 27.658 19.7942 28.5238 19.3111 29.499C18.8828 30.3603 18.705 31.3173 18.746 32.2698C18.7871 33.2313 19.0559 34.1974 19.5253 35.0633C20.1177 36.1616 21.0292 37.1094 22.2095 37.7064L22.1958 37.7292Z" fill="#FA5C98"/>
<path id="Vector_2" d="M14.945 37.67H19.4019C18.8732 37.1277 18.4266 36.517 18.0757 35.8608C17.4924 34.7807 17.1598 33.5731 17.1051 32.3655C17.055 31.1441 17.2874 29.9183 17.8388 28.8018C18.4631 27.5349 19.493 26.4184 20.9741 25.6209C22.6465 24.7186 24.6654 24.149 26.6477 24.5318C27.3313 24.6639 28.0057 24.9054 28.6574 25.2882C26.9257 21.0319 24.7155 20.444 21.9584 21.1731C20.5867 21.5377 19.0601 22.1939 17.4104 22.9094C16.4489 23.3241 15.4417 23.7616 14.4756 24.1398C12.7804 24.8052 10.2922 25.2199 8.15944 24.9966C6.99737 24.8735 5.91733 24.5637 5.09249 24.0077C4.18562 23.3925 3.57952 22.5084 3.47471 21.2871C3.40635 20.4759 3.57041 19.5189 4.03524 18.407C4.49551 16.8621 6.14063 15.3674 7.96804 13.7131C9.3215 12.4873 10.7843 11.1611 11.8553 9.69374C13.3318 7.67038 13.2999 5.87943 12.5206 4.58065C11.992 3.70112 11.1307 3.02667 10.1646 2.63931C9.20302 2.25651 8.15488 2.16081 7.23434 2.4388C6.00847 2.80792 5.01046 3.89252 4.80995 5.91589C4.78261 6.20298 4.60488 6.43995 4.36791 6.563C3.75725 6.87288 3.35622 7.53822 3.09191 8.23091H3.11014C4.14005 7.79342 5.31579 7.72051 6.19987 7.82988C6.67837 7.88912 6.97458 7.85266 7.17054 7.73418L7.20244 7.71595C7.40751 7.57468 7.60347 7.29669 7.83588 6.90478C8.10931 6.44907 8.49211 6.20754 8.91592 6.13463C9.25315 6.07538 9.60405 6.13463 9.9276 6.28957C10.2101 6.42173 10.4699 6.62224 10.6841 6.86377C11.1125 7.35138 11.3859 8.04406 11.2902 8.75498C11.158 9.70286 9.56303 11.1156 7.6855 12.7698C6.28646 14.0048 4.71425 15.3947 3.57497 16.7026C2.47214 17.9695 1.85693 19.2865 1.68376 20.5352C1.56527 21.3828 1.65186 22.1939 1.92984 22.9322C2.20327 23.6659 2.67265 24.3358 3.31521 24.8963C4.25853 25.7166 5.5801 26.3045 7.2389 26.5369C14.4209 27.5303 14.5212 29.4854 14.8265 35.4506C14.8539 36.0248 14.8858 36.6446 14.9359 37.3737L14.9541 37.6836L14.945 37.67Z" fill="url(#paint0_linear_1_42)"/>
</g>
<defs>
<linearGradient id="paint0_linear_1_42" x1="1.62452" y1="19.9746" x2="28.6528" y2="19.9746" gradientUnits="userSpaceOnUse">
<stop stop-color="#DC8064"/>
<stop offset="0.13" stop-color="#E98C70"/>
<stop offset="0.26" stop-color="#FB9E82"/>
<stop offset="0.45" stop-color="#FDBB9F"/>
<stop offset="0.57" stop-color="#FFCAAE"/>
<stop offset="0.68" stop-color="#F8AD92"/>
<stop offset="0.81" stop-color="#F19176"/>
</linearGradient>
</defs>
</svg>
