<svg width="561" height="361" viewBox="0 0 561 361" fill="none" xmlns="http://www.w3.org/2000/svg">
<g clip-path="url(#clip0_1_356)">
<path d="M61.8127 107.387H497.486" stroke="#DED8D5" stroke-width="1.97" stroke-miterlimit="10"/>
<path d="M491.798 78.8971H67.5011C64.3595 78.8971 61.8127 81.438 61.8127 84.5724V342.154C61.8127 345.289 64.3595 347.83 67.5011 347.83H491.798C494.939 347.83 497.486 345.289 497.486 342.154V84.5724C497.486 81.438 494.939 78.8971 491.798 78.8971Z" stroke="#DED8D5" stroke-width="1.97" stroke-miterlimit="10"/>
<path d="M90.5249 93.4336C90.5249 94.2203 90.2911 94.9894 89.853 95.6436C89.4149 96.2978 88.7922 96.8076 88.0637 97.1087C87.3351 97.4098 86.5334 97.4886 85.76 97.3351C84.9866 97.1816 84.2762 96.8027 83.7186 96.2464C83.161 95.6901 82.7812 94.9813 82.6274 94.2096C82.4736 93.438 82.5525 92.6381 82.8543 91.9113C83.1561 91.1844 83.6671 90.5631 84.3228 90.126C84.9784 89.6889 85.7493 89.4556 86.5379 89.4556C87.5953 89.4556 88.6094 89.8747 89.3571 90.6207C90.1049 91.3667 90.5249 92.3785 90.5249 93.4336Z" fill="#FFB1A5"/>
<path d="M106.011 93.4336C106.011 94.2207 105.777 94.9901 105.338 95.6445C104.9 96.2988 104.277 96.8087 103.547 97.1095C102.818 97.4104 102.016 97.4886 101.243 97.3344C100.469 97.1802 99.7586 96.8005 99.2013 96.2433C98.6441 95.6861 98.265 94.9765 98.1122 94.2043C97.9593 93.4321 98.0395 92.632 98.3426 91.9052C98.6457 91.1785 99.1581 90.5579 99.8149 90.1218C100.472 89.6858 101.243 89.4539 102.032 89.4556C103.088 89.4579 104.1 89.8781 104.846 90.6238C105.592 91.3696 106.011 92.3801 106.011 93.4336Z" fill="#EAD254"/>
<path d="M121.505 93.4336C121.505 94.2203 121.272 94.9894 120.833 95.6436C120.395 96.2978 119.773 96.8076 119.044 97.1087C118.316 97.4098 117.514 97.4886 116.74 97.3351C115.967 97.1816 115.257 96.8027 114.699 96.2464C114.141 95.6901 113.762 94.9813 113.608 94.2096C113.454 93.438 113.533 92.6381 113.835 91.9113C114.137 91.1844 114.648 90.5631 115.303 90.126C115.959 89.6889 116.73 89.4556 117.518 89.4556C118.575 89.4579 119.588 89.8778 120.335 90.6233C121.082 91.3688 121.503 92.3793 121.505 93.4336Z" fill="#00857B"/>
<path d="M554.082 98.4561H451.691C448.805 98.4561 446.465 100.79 446.465 103.67V198.148C446.465 201.028 448.805 203.362 451.691 203.362H554.082C556.968 203.362 559.307 201.028 559.307 198.148V103.67C559.307 100.79 556.968 98.4561 554.082 98.4561Z" fill="#EDEDED"/>
<path d="M554.082 98.4561H451.691C448.805 98.4561 446.465 100.79 446.465 103.67V198.148C446.465 201.028 448.805 203.362 451.691 203.362H554.082C556.968 203.362 559.307 201.028 559.307 198.148V103.67C559.307 100.79 556.968 98.4561 554.082 98.4561Z" stroke="#FFF2F8" stroke-width="1.97" stroke-miterlimit="10"/>
<path d="M476.451 176.074H529.671C532.571 176.074 534.923 173.728 534.923 170.834V127.32C534.923 124.426 532.571 122.08 529.671 122.08H476.451C473.551 122.08 471.199 124.426 471.199 127.32V170.834C471.199 173.728 473.551 176.074 476.451 176.074Z" fill="#C98BD2"/>
<path d="M517.587 158.055H492.679H488.186V138.375H517.587V143.293V158.055Z" stroke="white" stroke-width="1.65" stroke-linecap="round" stroke-linejoin="round"/>
<path d="M488.186 138.375L502.886 149.934L517.587 138.375" stroke="white" stroke-width="1.65" stroke-linecap="round" stroke-linejoin="round"/>
<path d="M103.489 187.59H5.83665C3.08535 187.59 0.85498 189.815 0.85498 192.56V277.507C0.85498 280.252 3.08535 282.477 5.83665 282.477H103.489C106.241 282.477 108.471 280.252 108.471 277.507V192.56C108.471 189.815 106.241 187.59 103.489 187.59Z" fill="#EDEDED"/>
<path d="M103.489 187.59H5.83665C3.08535 187.59 0.85498 189.815 0.85498 192.56V277.507C0.85498 280.252 3.08535 282.477 5.83665 282.477H103.489C106.241 282.477 108.471 280.252 108.471 277.507V192.56C108.471 189.815 106.241 187.59 103.489 187.59Z" stroke="#DED8D5" stroke-width="1.97" stroke-miterlimit="10"/>
<path d="M79.7415 203.841H29.096C25.8966 203.841 23.303 206.428 23.303 209.621V258.418C23.303 261.61 25.8966 264.197 29.096 264.197H79.7415C82.9409 264.197 85.5345 261.61 85.5345 258.418V209.621C85.5345 206.428 82.9409 203.841 79.7415 203.841Z" fill="#FFB1A5"/>
<path d="M42.3571 222.172C39.8973 224.626 38.222 227.753 37.5433 231.157C36.8646 234.561 37.2129 238.09 38.5441 241.296C39.8753 244.503 42.1297 247.243 45.0221 249.172C47.9145 251.1 51.3151 252.129 54.7938 252.129C58.2725 252.129 61.6731 251.1 64.5656 249.172C67.458 247.243 69.7123 244.503 71.0436 241.296C72.3748 238.09 72.723 234.561 72.0443 231.157C71.3656 227.753 69.6904 224.626 67.2305 222.172C63.9242 218.896 59.4536 217.058 54.7938 217.058C50.1341 217.058 45.6635 218.896 42.3571 222.172ZM67.1782 224.697H61.5858C61.0054 222.881 60.2759 221.117 59.4047 219.422C62.4682 220.361 65.1771 222.199 67.1782 224.697ZM48.3334 233.558C48.3436 231.262 48.6366 228.976 49.2058 226.751H60.4604C61.0107 228.978 61.289 231.264 61.2892 233.558H48.3334ZM61.1845 235.612C61.0169 237.913 60.6135 240.191 59.9805 242.41H49.6071C48.9742 240.191 48.5708 237.913 48.4032 235.612H61.1845ZM54.7982 218.743C55.6282 218.743 56.4567 218.81 57.2759 218.943C58.3156 220.772 59.1719 222.7 59.8322 224.697H49.7293C50.4092 222.697 51.2859 220.77 52.3466 218.943C53.1572 218.812 53.977 218.745 54.7982 218.743ZM50.183 219.422C49.3117 221.117 48.5822 222.881 48.0018 224.697H42.392C44.3977 222.196 47.1131 220.358 50.183 219.422ZM41.0048 226.751H47.426C46.8792 228.98 46.5865 231.263 46.5536 233.558H38.9546C39.1085 231.162 39.8098 228.834 41.0048 226.751ZM41.0048 242.419C39.8121 240.338 39.1137 238.013 38.9633 235.621H46.5623C46.6777 237.918 47.0344 240.196 47.6267 242.419H41.0048ZM42.4007 244.473H48.2374C48.8369 246.3 49.5568 248.085 50.3923 249.818C47.2341 248.903 44.4385 247.033 42.392 244.464L42.4007 244.473ZM54.8069 250.427C54.1098 250.428 53.4133 250.384 52.7218 250.296C51.7729 248.412 50.951 246.467 50.2615 244.473H59.3262C58.6367 246.467 57.8147 248.412 56.8659 250.296C56.1799 250.38 55.4893 250.421 54.7982 250.418L54.8069 250.427ZM59.1691 249.809C60.0073 248.08 60.7301 246.297 61.3328 244.473H67.1782C65.1351 247.035 62.3461 248.902 59.1953 249.818L59.1691 249.809ZM68.5654 242.419H61.9435C62.5344 240.196 62.894 237.918 63.0166 235.621H70.668C70.5056 238.013 69.7952 240.335 68.5916 242.41L68.5654 242.419ZM70.668 233.558H63.069C63.0319 231.264 62.7393 228.981 62.1965 226.751H68.6177C69.8128 228.834 70.5141 231.162 70.668 233.558Z" fill="white"/>
<path d="M97.7139 54.0807H9.20427C8.32732 54.0807 7.48628 53.7332 6.86618 53.1145C6.24607 52.4958 5.89771 51.6567 5.89771 50.7817C5.8977 49.906 6.24579 49.066 6.86565 48.4459C7.4855 47.8259 8.32652 47.4764 9.20427 47.4741H97.7139C98.5932 47.4741 99.4364 47.8225 100.058 48.4429C100.68 49.0632 101.029 49.9045 101.029 50.7817C101.027 51.6575 100.677 52.4966 100.055 53.115C99.4336 53.7334 98.5917 54.0807 97.7139 54.0807Z" fill="#C98BD2"/>
<path d="M557.685 269.673H514.743C513.866 269.673 513.025 269.325 512.405 268.706C511.785 268.088 511.436 267.249 511.436 266.374C511.435 265.94 511.52 265.511 511.686 265.11C511.851 264.709 512.095 264.345 512.402 264.038C512.709 263.732 513.074 263.489 513.476 263.323C513.878 263.158 514.308 263.073 514.743 263.075H557.676C558.55 263.075 559.388 263.42 560.008 264.035C560.627 264.65 560.978 265.484 560.982 266.356C560.985 267.232 560.639 268.073 560.021 268.695C559.402 269.316 558.562 269.668 557.685 269.673Z" fill="#56DFED"/>
<path d="M527.62 297.971H522.368C520.99 297.971 519.873 299.085 519.873 300.46V305.378C519.873 306.753 520.99 307.868 522.368 307.868H527.62C528.998 307.868 530.115 306.753 530.115 305.378V300.46C530.115 299.085 528.998 297.971 527.62 297.971Z" fill="#C98BD2"/>
<path d="M30.2825 320.846H25.0304C23.6523 320.846 22.5352 321.961 22.5352 323.335V328.253C22.5352 329.628 23.6523 330.743 25.0304 330.743H30.2825C31.6605 330.743 32.7777 329.628 32.7777 328.253V323.335C32.7777 321.961 31.6605 320.846 30.2825 320.846Z" fill="#FFB1A5"/>
<path d="M431.852 24.1548H344.529C343.079 24.1548 341.903 25.3279 341.903 26.7749V48.0486C341.903 49.4956 343.079 50.6686 344.529 50.6686H431.852C433.302 50.6686 434.478 49.4956 434.478 48.0486V26.7749C434.478 25.3279 433.302 24.1548 431.852 24.1548Z" fill="#FFB1A5"/>
<path d="M354.51 33.5992H416.61" stroke="white" stroke-width="1.18" stroke-miterlimit="10"/>
<path d="M354.51 39.9622H379.802" stroke="white" stroke-width="1.18" stroke-miterlimit="10"/>
<path d="M351.979 47.6656V58.0065L365.005 47.6656H351.979Z" fill="#FFB1A5"/>
<path d="M173.25 0H217.318C218.812 0 220.246 0.592429 221.303 1.64696C222.36 2.70149 222.954 4.13174 222.954 5.62307V46.621C222.949 48.1093 222.353 49.5351 221.297 50.5859C220.24 51.6367 218.809 52.2267 217.318 52.2267H175.048C173.076 52.2267 171.185 51.4454 169.791 50.0545C168.397 48.6637 167.614 46.7774 167.614 44.8105V5.64048C167.612 4.90059 167.756 4.16751 168.038 3.48328C168.32 2.79905 168.735 2.17711 169.259 1.65311C169.782 1.12911 170.405 0.713364 171.089 0.42969C171.774 0.146016 172.509 -3.54594e-06 173.25 0Z" fill="#56DFED"/>
<path d="M208.2 29.9868L205.025 26.8445C204.774 26.5521 204.464 26.3156 204.115 26.1507C203.766 25.9857 203.386 25.8959 203.001 25.887C202.238 25.9043 201.512 26.2164 200.976 26.7575L199.179 28.5593L198.839 28.3852C198.647 28.3047 198.46 28.2117 198.281 28.1067C196.498 26.9504 194.918 25.5094 193.604 23.8415C193.019 23.143 192.529 22.3703 192.147 21.5435C192.592 21.1431 193.02 20.6731 193.377 20.3075L193.883 19.8026C194.173 19.5362 194.407 19.2152 194.572 18.8582C194.737 18.5011 194.829 18.115 194.843 17.7222C194.829 17.3294 194.737 16.9434 194.572 16.5863C194.407 16.2292 194.173 15.9083 193.883 15.6419L192.313 14.0751C192.132 13.8983 191.963 13.7093 191.807 13.5093L190.734 12.4473C190.201 11.9016 189.473 11.5887 188.71 11.5769C188.331 11.5768 187.956 11.654 187.608 11.8037C187.26 11.9534 186.946 12.1724 186.686 12.4473L184.714 14.4058C183.979 15.147 183.523 16.1186 183.423 17.1565C183.359 18.6169 183.609 20.0741 184.156 21.4303C185.136 24.1328 186.615 26.6278 188.518 28.7856C190.993 31.728 194.061 34.1183 197.522 35.8014C199.105 36.601 200.818 37.1138 202.582 37.316H202.974C203.609 37.3261 204.239 37.2009 204.821 36.9487C205.403 36.6965 205.925 36.3231 206.351 35.8536L206.412 35.8014C206.733 35.4421 207.086 35.1129 207.467 34.8178L208.2 34.0866C208.48 33.823 208.703 33.5052 208.855 33.1528C209.007 32.8003 209.086 32.4205 209.086 32.0367C209.086 31.6529 209.007 31.2731 208.855 30.9207C208.703 30.5682 208.48 30.2504 208.2 29.9868ZM206.9 32.9028L206.229 33.5818C205.836 33.9125 205.496 34.3129 205.103 34.7046C204.846 34.9838 204.533 35.2057 204.184 35.3557C203.836 35.5057 203.459 35.5804 203.079 35.5751H202.8C201.272 35.4154 199.791 34.9601 198.438 34.2346C195.213 32.6532 192.357 30.4143 190.053 27.6627C188.324 25.6385 186.938 23.3449 185.953 20.8733C185.429 19.7907 185.194 18.5912 185.272 17.3915C185.312 16.7659 185.598 16.1811 186.066 15.7637L187.977 13.8575C188.075 13.7422 188.195 13.6474 188.329 13.5787C188.464 13.5099 188.611 13.4686 188.762 13.4571C188.914 13.4634 189.063 13.5024 189.199 13.5716C189.334 13.6407 189.453 13.7382 189.547 13.8575L190.533 14.7976C190.704 14.9982 190.891 15.1845 191.092 15.3546L192.671 16.9301C192.887 17.1392 193.025 17.4155 193.063 17.7135C193.039 18.0156 192.899 18.2966 192.671 18.4969L192.165 19.0018L190.751 20.4119L190.699 20.4641C190.5 20.6312 190.36 20.8572 190.299 21.1093C190.238 21.3613 190.259 21.6262 190.359 21.8656V21.9265C190.835 23.0171 191.46 24.0366 192.217 24.9556C193.651 26.7831 195.382 28.3572 197.338 29.6125C197.567 29.7698 197.813 29.9012 198.071 30.0042C198.264 30.0874 198.45 30.1834 198.63 30.2915L198.691 30.3437C198.946 30.4794 199.239 30.5258 199.524 30.4753C199.809 30.4248 200.068 30.2803 200.261 30.0652L202.233 28.0979C202.435 27.8727 202.716 27.7327 203.018 27.7062C203.302 27.7428 203.563 27.8822 203.751 28.0979L206.9 31.2403C207.026 31.3397 207.127 31.4661 207.197 31.61C207.266 31.754 207.302 31.9117 207.302 32.0715C207.302 32.2313 207.266 32.3891 207.197 32.533C207.127 32.677 207.026 32.8034 206.9 32.9028Z" fill="white"/>
<mask id="mask0_1_356" style="mask-type:luminance" maskUnits="userSpaceOnUse" x="101" y="57" width="402" height="291">
<path d="M502.633 57.5451H101.945V347.125H502.633V57.5451Z" fill="white"/>
</mask>
<g mask="url(#mask0_1_356)">
<path d="M401.186 250.061L369.333 245.831L369.586 248.982L342.357 252.603C342.357 252.603 324.803 296.534 340.254 393.145H362.405L370.38 295.177H373.206L380.927 393.145H403.07C418.565 296.534 401.186 250.061 401.186 250.061Z" fill="#8E716C"/>
<path d="M360.268 295.177H383.379" stroke="#282828" stroke-width="1.23" stroke-linecap="round" stroke-linejoin="round"/>
<path d="M419.777 203.684C417.055 199.332 401.752 199.497 400.941 199.401C396.806 198.914 403.558 231.765 412.204 260.481C412.597 261.777 413.258 262.976 414.145 264C415.033 265.025 416.126 265.851 417.355 266.426C418.584 267.001 419.92 267.311 421.277 267.336C422.634 267.362 423.98 267.102 425.23 266.574L425.396 266.495C427.414 265.642 429.081 264.129 430.124 262.206C431.167 260.283 431.524 258.063 431.136 255.911C427.045 234.219 422.927 208.733 419.777 203.684Z" fill="#FFB1A5"/>
<path d="M423.424 215.592L403.89 223.156L402.058 213.912L422.29 208.872L423.424 215.592Z" fill="#F3978E"/>
<path d="M427.115 234.097C427.115 234.097 417.858 246.501 418.303 245.927C418.748 245.352 425.562 225.907 425.562 225.907L427.115 234.097Z" fill="#F3978E"/>
<path d="M440.35 217.428L413.818 251.724C412.995 252.789 412.402 254.013 412.076 255.318C411.751 256.623 411.7 257.982 411.927 259.307C412.154 260.633 412.654 261.898 413.395 263.021C414.137 264.144 415.104 265.102 416.235 265.834C417.361 266.568 418.627 267.063 419.954 267.285C421.281 267.507 422.639 267.453 423.944 267.126C425.248 266.799 426.471 266.206 427.535 265.385C428.599 264.563 429.48 263.53 430.124 262.352L452.206 221.702L440.35 217.428Z" fill="#FFB1A5"/>
<path d="M447.224 226.237C445.163 225.574 443.344 224.316 442 222.622C440.655 220.928 439.844 218.874 439.67 216.719C439.495 214.565 439.965 212.408 441.02 210.52C442.075 208.633 443.667 207.1 445.595 206.115C447.524 205.131 449.701 204.739 451.853 204.99C454.004 205.24 456.033 206.122 457.682 207.523C459.331 208.924 460.527 210.782 461.118 212.861C461.708 214.941 461.667 217.148 461 219.204C460.107 221.958 458.154 224.246 455.571 225.565C452.988 226.884 449.986 227.125 447.224 226.237Z" fill="#FFB1A5"/>
<path d="M458.566 209.281C458.566 209.281 461.559 206.174 456.245 204.006C450.932 201.839 444.363 202.326 440.166 212.484L458.566 209.281Z" fill="#FFB1A5"/>
<path d="M464.071 187.607L475.178 192.412C475.325 192.478 475.456 192.575 475.562 192.696C475.669 192.817 475.749 192.959 475.797 193.112C475.845 193.266 475.859 193.428 475.84 193.588C475.82 193.748 475.767 193.902 475.684 194.04L461.07 221.276C460.914 221.583 460.649 221.822 460.327 221.945C460.005 222.069 459.648 222.069 459.325 221.946L448.21 217.141C448.063 217.074 447.931 216.976 447.825 216.854C447.718 216.733 447.639 216.59 447.592 216.435C447.545 216.28 447.531 216.117 447.552 215.957C447.573 215.796 447.628 215.642 447.713 215.505L462.326 188.269C462.484 187.963 462.75 187.726 463.072 187.604C463.394 187.482 463.75 187.483 464.071 187.607Z" fill="#372F5F"/>
<path d="M463.007 187.146L474.122 191.951C474.268 192.019 474.399 192.117 474.505 192.239C474.611 192.361 474.689 192.504 474.736 192.658C474.783 192.812 474.797 192.975 474.777 193.135C474.757 193.295 474.703 193.449 474.619 193.587L460.006 220.823C459.848 221.129 459.583 221.366 459.26 221.488C458.938 221.61 458.582 221.609 458.261 221.485L447.155 216.68C447.003 216.611 446.868 216.51 446.759 216.384C446.651 216.257 446.572 216.109 446.528 215.948C446.484 215.788 446.475 215.62 446.504 215.456C446.532 215.292 446.597 215.136 446.692 215L461.306 187.764C461.471 187.477 461.732 187.258 462.043 187.145C462.354 187.032 462.696 187.032 463.007 187.146Z" fill="#261B43"/>
<path d="M461.751 189.896L471.513 194.118L459.604 216.314L449.842 212.093L461.751 189.896Z" fill="#E6E6E6"/>
<path d="M471.513 194.118L449.842 212.093L461.751 189.896L471.513 194.118Z" fill="white"/>
<path d="M453.061 203.101C454.704 203.455 456.287 204.041 457.764 204.842C458.243 205.11 458.622 205.527 458.841 206.03C459.06 206.534 459.107 207.094 458.976 207.627C458.856 208.115 458.589 208.554 458.212 208.887C457.835 209.22 457.365 209.43 456.865 209.49L451.089 210.221C451.089 210.221 448.079 215.444 444.11 215.983L447.722 206.887L453.061 203.101Z" fill="#FFB1A5"/>
<path d="M379.296 160.527C378.659 160.527 420.257 166.264 427.115 213.625L405.53 216.924L401.168 252.612H340.969L329.017 186.615C329.017 186.615 342.357 167.535 367.125 160.501L379.296 160.527Z" fill="#56DFED"/>
<path d="M405.53 216.88L407.406 196.224" stroke="#282828" stroke-width="1.23" stroke-linecap="round" stroke-linejoin="round"/>
<path d="M383.248 161.198V144.764H363.95V161.398C362.153 161.961 360.403 162.662 358.715 163.496L373.773 172.444L389.163 163.496C387.296 162.484 385.309 161.712 383.248 161.198Z" fill="#FFB1A5"/>
<path d="M363.81 146.774C363.81 146.774 367.3 155.958 376.53 155.166C385.036 154.434 383.684 141.708 383.684 141.708L363.81 146.774Z" fill="#282828"/>
<path d="M355.347 134.562C352.32 137.295 345.558 126.911 348.481 123.995C351.404 121.079 353.637 125.657 353.637 125.657L354.937 128.756L355.923 132.952L356.159 134.057L355.347 134.562Z" fill="#F3978E"/>
<path d="M349.894 127.677C349.894 127.677 352.18 126.65 354.257 129.957" stroke="#282828" stroke-width="0.99" stroke-linecap="round" stroke-linejoin="round"/>
<path d="M391.126 134.249C393.909 137.226 401.534 127.451 398.865 124.3C396.195 121.148 393.63 125.518 393.63 125.518L392.068 128.495L390.725 132.595L390.402 133.674L391.126 134.249Z" fill="#F3978E"/>
<path d="M397.146 127.842C397.146 127.842 394.956 126.624 392.644 129.757" stroke="#282828" stroke-width="0.99" stroke-linecap="round" stroke-linejoin="round"/>
<path d="M350.043 114.089C350.043 127.834 360.512 134.353 373.503 134.353C386.493 134.353 396.972 127.834 396.972 114.089C396.972 100.345 386.502 90.9876 373.503 90.9876C360.503 90.9876 350.043 100.345 350.043 114.089Z" fill="#282828"/>
<path d="M353.227 115.047C353.238 122.078 354.039 129.085 355.618 135.937C356.787 140.995 360.076 144.537 364.717 147.384L365.59 147.897C368.035 149.376 370.832 150.173 373.691 150.205C376.55 150.238 379.366 149.504 381.843 148.08C386.877 145.155 390.402 141.291 391.484 135.894C392.747 129.023 393.479 122.065 393.674 115.082C393.674 115.082 395.549 93.773 373.756 94.1908C351.962 94.6086 353.227 115.047 353.227 115.047Z" fill="#FFB1A5"/>
<path d="M372.115 127.207V130.149C372.114 130.35 372.161 130.549 372.252 130.729C372.342 130.909 372.474 131.065 372.636 131.185C372.799 131.304 372.987 131.384 373.186 131.417C373.385 131.451 373.589 131.436 373.782 131.376L375.134 131.011" stroke="#282828" stroke-width="1.23" stroke-linecap="round" stroke-linejoin="round"/>
<path d="M368.652 115.769L357.816 118.302C357.816 118.302 358.313 115.552 362.745 114.551C367.177 113.55 368.652 115.769 368.652 115.769Z" fill="#282828"/>
<path d="M378.266 115.769L388.736 118.302C388.736 118.302 388.256 115.552 383.981 114.551C379.706 113.55 378.266 115.769 378.266 115.769Z" fill="#282828"/>
<path d="M364.534 125.527C365.541 125.527 366.357 124.712 366.357 123.708C366.357 122.703 365.541 121.888 364.534 121.888C363.527 121.888 362.71 122.703 362.71 123.708C362.71 124.712 363.527 125.527 364.534 125.527Z" fill="#282828"/>
<path d="M383.684 123.708C383.688 124.07 383.583 124.425 383.384 124.728C383.185 125.031 382.9 125.268 382.565 125.409C382.231 125.55 381.862 125.589 381.505 125.52C381.149 125.451 380.821 125.279 380.563 125.024C380.305 124.769 380.129 124.443 380.057 124.088C379.984 123.733 380.02 123.365 380.158 123.03C380.296 122.695 380.531 122.408 380.832 122.206C381.134 122.005 381.489 121.897 381.852 121.897C382.092 121.896 382.329 121.942 382.551 122.032C382.772 122.123 382.974 122.256 383.144 122.424C383.314 122.592 383.449 122.792 383.542 123.012C383.635 123.232 383.683 123.469 383.684 123.708Z" fill="#282828"/>
<path d="M366.366 134.806H380.447C380.447 134.806 374.209 142.379 366.366 134.806Z" fill="white"/>
<path d="M369.259 129.896C372.291 126.87 372.291 121.965 369.259 118.94C366.226 115.914 361.31 115.914 358.278 118.94C355.245 121.965 355.245 126.87 358.278 129.896C361.31 132.921 366.226 132.921 369.259 129.896Z" stroke="#C98BD2" stroke-width="1.34" stroke-miterlimit="10"/>
<path d="M388.349 129.894C391.381 126.869 391.381 121.964 388.349 118.938C385.317 115.913 380.4 115.913 377.368 118.938C374.336 121.964 374.336 126.869 377.368 129.894C380.4 132.92 385.317 132.92 388.349 129.894Z" stroke="#C98BD2" stroke-width="1.34" stroke-miterlimit="10"/>
<path d="M371.54 124.421C372.012 123.957 372.648 123.696 373.311 123.696C373.974 123.696 374.61 123.957 375.082 124.421" stroke="#C98BD2" stroke-width="1.34" stroke-miterlimit="10"/>
<path d="M356.001 124.421L353.55 124.352" stroke="#C98BD2" stroke-width="1.34" stroke-miterlimit="10"/>
<path d="M390.62 124.421L393.08 124.352" stroke="#C98BD2" stroke-width="1.34" stroke-miterlimit="10"/>
<path d="M393.368 122.106C393.368 122.106 384.644 110.355 386.668 98.4473C388.78 99.6924 390.6 101.375 392.006 103.381C393.411 105.387 394.37 107.67 394.817 110.076C396.5 118.459 393.368 122.106 393.368 122.106Z" fill="#282828"/>
<path d="M353.218 122.907C353.218 122.907 363.339 109.554 361.332 97.6639C356.891 100.493 353.754 104.963 352.608 110.094C350.941 118.459 353.218 122.907 353.218 122.907Z" fill="#282828"/>
<path d="M392.601 103.139C392.601 103.139 381.416 115.325 350.793 113.262C350.793 113.262 355.487 95.3311 370.318 93.4161C370.353 93.4161 387.488 91.3967 392.601 103.139Z" fill="#282828"/>
<path d="M406.288 91.1768C407.575 83.2227 402.155 75.7337 394.183 74.4497C386.21 73.1657 378.704 78.5729 377.417 86.527C376.13 94.4811 381.55 101.97 389.522 103.254C397.495 104.538 405.001 99.1309 406.288 91.1768Z" fill="#282828"/>
<path d="M213.4 250.027L186.171 246.406L186.424 243.255L154.571 247.485C154.571 247.485 137.192 293.958 152.678 390.569H174.829L182.551 292.609H185.377L193.334 390.569H215.494C230.954 293.958 213.4 250.027 213.4 250.027Z" fill="#282828"/>
<path d="M211.228 117.858C207.165 112.997 204.063 107.412 202.085 101.398C199.389 93.7991 190.577 96.8892 190.577 96.8892C190.577 96.8892 183.231 87.4623 172.177 90.7439C161.123 94.0254 157.285 101.842 157.04 111.208C156.796 120.574 149.459 121.993 143.797 132.786C133.798 151.84 150.637 167.891 181.312 163.443V163.139C184.963 164.149 188.764 164.505 192.54 164.192C229.384 162.007 225.833 134.989 211.228 117.858Z" fill="#282828"/>
<path d="M199.171 131.986C202.198 134.719 208.968 124.334 206.045 121.418C203.123 118.502 200.889 123.081 200.889 123.081L199.581 126.18L198.595 130.375L198.368 131.481L199.171 131.986Z" fill="#F3978E"/>
<path d="M204.632 125.1C204.632 125.1 202.338 124.073 200.27 127.381" stroke="#282828" stroke-width="0.99" stroke-linecap="round" stroke-linejoin="round"/>
<path d="M163.392 131.672C160.608 134.649 152.992 124.874 155.653 121.723C158.314 118.572 160.931 122.942 160.931 122.942L162.493 125.919L163.828 130.018L164.159 131.098L163.392 131.672Z" fill="#F3978E"/>
<path d="M157.372 125.266C157.372 125.266 159.57 124.056 161.874 127.181" stroke="#282828" stroke-width="0.99" stroke-linecap="round" stroke-linejoin="round"/>
<path d="M204.484 111.513C204.484 125.266 194.015 131.777 181.015 131.777C168.016 131.777 157.546 125.266 157.546 111.513C157.546 97.7597 168.016 88.4111 181.015 88.4111C194.015 88.4111 204.484 97.7684 204.484 111.513Z" fill="#282828"/>
<path d="M190.577 142.187H171.27V167.125H190.577V142.187Z" fill="#FFB1A5"/>
<path d="M168.461 140.638C168.461 140.638 173.826 151.336 180.439 153.007C182.217 153.431 184.081 153.322 185.796 152.693C188.283 151.823 191.441 148.115 191.973 143.989L192.226 141.648C192.226 141.648 180.457 148.071 168.461 140.638Z" fill="#282828"/>
<path d="M201.291 112.47C201.281 119.501 200.479 126.509 198.9 133.361C197.74 138.427 194.451 141.961 189.801 144.807L188.928 145.321C186.484 146.801 183.686 147.6 180.826 147.632C177.967 147.664 175.152 146.929 172.675 145.504C167.641 142.579 164.116 138.714 163.078 133.317C161.819 126.445 161.087 119.488 160.888 112.505C160.888 112.505 159.012 91.1965 180.814 91.6143C202.617 92.0322 201.291 112.47 201.291 112.47Z" fill="#FFB1A5"/>
<path d="M179.558 125.779V127.52C179.558 127.687 179.59 127.853 179.654 128.008C179.786 128.296 180.017 128.527 180.305 128.659C180.593 128.792 180.919 128.817 181.224 128.73L182.577 128.373" stroke="#282828" stroke-width="1.23" stroke-linecap="round" stroke-linejoin="round"/>
<path d="M184.086 114.237L195.681 116.97C195.681 116.97 195.158 114.002 190.446 112.914C185.735 111.826 184.086 114.237 184.086 114.237Z" fill="#282828"/>
<path d="M177.979 114.237L166.236 116.97C166.236 116.97 166.768 114.002 171.575 112.914C176.382 111.826 177.979 114.237 177.979 114.237Z" fill="#282828"/>
<path d="M173.809 121.418C173.811 121.78 173.705 122.135 173.504 122.436C173.304 122.738 173.018 122.974 172.684 123.113C172.349 123.253 171.981 123.29 171.625 123.221C171.269 123.151 170.941 122.978 170.684 122.723C170.427 122.467 170.252 122.142 170.18 121.787C170.109 121.432 170.145 121.064 170.283 120.73C170.422 120.395 170.656 120.109 170.958 119.908C171.259 119.707 171.614 119.599 171.977 119.599C172.217 119.598 172.455 119.644 172.677 119.735C172.899 119.826 173.101 119.96 173.272 120.129C173.442 120.298 173.577 120.499 173.669 120.72C173.761 120.941 173.809 121.179 173.809 121.418Z" fill="#282828"/>
<path d="M191.127 121.418C191.128 121.78 191.022 122.135 190.822 122.436C190.622 122.738 190.336 122.974 190.002 123.113C189.667 123.253 189.298 123.29 188.942 123.221C188.586 123.151 188.259 122.978 188.002 122.723C187.745 122.467 187.57 122.142 187.498 121.787C187.427 121.432 187.463 121.064 187.601 120.73C187.739 120.395 187.974 120.109 188.276 119.908C188.577 119.707 188.932 119.599 189.295 119.599C189.535 119.598 189.773 119.644 189.995 119.735C190.217 119.826 190.419 119.96 190.589 120.129C190.76 120.298 190.895 120.499 190.987 120.72C191.079 120.941 191.127 121.179 191.127 121.418Z" fill="#282828"/>
<path d="M172.596 131.777H188.632C188.632 131.777 187.497 136.172 180.23 136.172C178.676 136.205 177.144 135.813 175.798 135.038C174.452 134.263 173.345 133.135 172.596 131.777Z" fill="white"/>
<path d="M161.149 119.529C161.149 119.529 169.874 107.778 167.859 95.8708C165.746 97.1162 163.925 98.7984 162.518 100.804C161.111 102.81 160.15 105.093 159.701 107.5C158.017 115.882 161.149 119.529 161.149 119.529Z" fill="#282828"/>
<path d="M201.308 119.147C201.308 119.147 191.179 106.96 193.194 95.07C197.635 97.8995 200.772 102.369 201.919 107.5C203.585 115.882 201.308 119.147 201.308 119.147Z" fill="#282828"/>
<path d="M161.882 100.562C161.882 100.562 171.881 113.967 202.503 111.878C202.503 111.878 199.014 92.7285 184.182 90.8483C184.165 90.8483 167.03 88.7854 161.882 100.562Z" fill="#282828"/>
<path d="M133.973 309.008C133.528 309.704 159.457 196.451 151.762 198.166C151.055 198.322 137.576 199.567 135.569 203.632C129.768 215.426 125.632 308.138 125.632 308.138L133.973 309.008Z" fill="#FFB1A5"/>
<path d="M125.632 308.138C125.632 308.138 121.453 327.488 137.253 329.603C137.749 329.658 138.249 329.546 138.673 329.284C139.097 329.022 139.42 328.625 139.591 328.158V328.027C139.766 327.501 139.736 326.928 139.508 326.422C139.281 325.916 138.871 325.514 138.361 325.294C135.788 324.145 131.792 321.238 133.772 314.648C133.772 314.648 136.058 314.37 137.314 318.618C137.389 318.875 137.519 319.113 137.695 319.314C137.872 319.516 138.09 319.676 138.336 319.784C138.581 319.892 138.848 319.945 139.116 319.939C139.384 319.933 139.648 319.868 139.888 319.749C140.228 319.579 140.507 319.307 140.685 318.972C140.863 318.637 140.932 318.254 140.883 317.878C140.507 314.901 139.007 307.737 133.249 305.813L125.632 308.138Z" fill="#FFB1A5"/>
<path d="M130.911 230.859C130.911 230.859 145.856 251.846 145.934 251.437C146.013 251.028 151.169 221.972 151.169 221.972L133.039 214.138L130.911 230.859Z" fill="#F3978E"/>
<path d="M172.421 163.026C173.058 163.026 135.5 163.696 128.642 211.005L150.226 214.304L154.589 249.992H214.787L226.74 183.995C226.74 183.995 218.242 169.737 193.474 162.773L172.421 163.026Z" fill="#00857B"/>
<path d="M154.065 168.744C154.065 168.744 159.37 175.778 181.111 175.778C202.66 175.778 208.157 168.379 208.157 168.379C208.157 168.379 195.454 161.293 180.718 159.004C171.406 160.94 162.428 164.222 154.065 168.744Z" fill="#FFB1A5"/>
<path d="M227.961 318.635L228.014 413H274.803L278.398 318.635H227.961Z" fill="#005683"/>
<path d="M329.549 318.635L329.497 413H282.707L279.113 318.635H329.549Z" fill="#005683"/>
<path d="M303.995 318.635H255.618V351.416H303.995V318.635Z" fill="#005683"/>
<path d="M359.107 236.291C362.004 268.262 358.95 291.564 359.797 350.398L331.878 351.564L327.717 241.435L359.107 236.291Z" fill="#FFB1A5"/>
<path d="M331.154 261.238C331.154 261.238 348.446 259.662 360.268 251.881L359.954 245.03L331.163 248.947L331.154 261.238Z" fill="#F3978E"/>
<path d="M303.41 162.669C303.41 162.669 358.374 176.457 368.285 246.014C368.285 246.014 341.405 257.643 314.464 252.638L320.528 229.38L303.41 162.669Z" fill="#C98BD2"/>
<path d="M139.338 191.594L180.239 239.781L167.719 274.947C167.719 274.947 136.634 231.834 122.666 198.505L139.338 191.594Z" fill="#FFB1A5"/>
<path d="M140.682 193.334C140.682 193.334 126.321 201.43 122.666 198.505C116.28 193.387 111.01 174.655 111.01 174.655C111.01 174.655 137.846 164.514 137.611 164.949C137.375 165.385 140.682 193.334 140.682 193.334Z" fill="#FFB1A5"/>
<path d="M140.682 193.335C140.429 191.89 146.004 176.335 147.915 170.494C148.016 170.147 148.042 169.783 147.991 169.425C147.941 169.067 147.815 168.724 147.623 168.418C147.43 168.112 147.174 167.85 146.872 167.65C146.571 167.45 146.23 167.315 145.873 167.256C145.248 167.091 144.585 167.134 143.987 167.379C143.388 167.624 142.886 168.058 142.558 168.614L135.814 180.095L140.682 193.335Z" fill="#FFB1A5"/>
<path d="M140.185 176.509L135.561 153.555C135.417 152.812 134.985 152.156 134.36 151.727C133.735 151.299 132.966 151.133 132.219 151.266C131.578 151.373 131.005 151.726 130.621 152.25C130.238 152.774 130.076 153.427 130.169 154.069L132.184 171.164L140.185 176.509Z" fill="#FFB1A5"/>
<path d="M130.989 168.048L124.707 151.649C124.449 150.958 123.935 150.393 123.271 150.069C122.607 149.745 121.844 149.688 121.139 149.908C120.546 150.105 120.049 150.516 119.745 151.061C119.441 151.605 119.354 152.244 119.499 152.85L124.158 171.791L130.989 168.048Z" fill="#FFB1A5"/>
<path d="M124.245 172.879L116.297 156.767C115.945 156.049 115.333 155.491 114.586 155.206C113.838 154.92 113.009 154.927 112.266 155.226C111.933 155.37 111.631 155.578 111.379 155.839C111.127 156.1 110.929 156.408 110.797 156.745C110.664 157.083 110.6 157.443 110.609 157.806C110.617 158.168 110.697 158.525 110.844 158.856L117.178 174.089L124.245 172.879Z" fill="#FFB1A5"/>
<path d="M111.01 174.655L104.772 164.784C104.646 164.517 104.574 164.228 104.561 163.934C104.548 163.639 104.593 163.345 104.694 163.068C104.796 162.791 104.951 162.537 105.152 162.321C105.352 162.104 105.594 161.93 105.863 161.807C106.403 161.57 107.008 161.527 107.576 161.686C108.144 161.845 108.639 162.195 108.977 162.677L117.178 173.993L111.01 174.655Z" fill="#FFB1A5"/>
<path d="M138.928 174.785C138.928 174.785 129.567 173.81 128.607 186.258" stroke="#282828" stroke-width="1.53" stroke-linecap="round" stroke-linejoin="round"/>
<path d="M159.422 258.522C159.422 258.522 167.117 285.079 182.446 281.545C197.775 278.011 221.662 245.352 221.662 245.352L216.314 189.583L173.294 242.41L159.422 258.522Z" fill="#FFB1A5"/>
<path d="M186.642 225.985C186.642 225.985 201.16 247.842 213.557 255.58L221.662 245.361L190.376 221.215L186.642 225.985Z" fill="#F3978E"/>
<path d="M250.191 161.468C250.191 161.468 207.546 171.042 184.819 220.501C184.819 220.501 198.551 241.148 220.589 250.323L235.325 232.304L250.191 161.468Z" fill="#C98BD2"/>
<path d="M250.191 161.311C240.153 166.452 230.995 173.147 223.058 181.148L226.347 325.694H331.32L330.98 181.923C330.98 181.923 317.754 169.006 303.411 162.704C291.231 157.324 262.03 155.253 250.191 161.311Z" fill="#C98BD2"/>
<path d="M285.29 202.613H314.491V217.176C314.491 221.041 312.952 224.747 310.213 227.479C307.474 230.212 303.759 231.747 299.886 231.747C296.014 231.745 292.301 230.209 289.564 227.476C286.827 224.744 285.29 221.039 285.29 217.176V202.613Z" stroke="#282828" stroke-width="1.4" stroke-linecap="round" stroke-linejoin="round"/>
<path d="M331.154 253.178L332.515 205.895" stroke="#282828" stroke-width="1.4" stroke-linecap="round" stroke-linejoin="round"/>
<path d="M224.672 245.3L222.404 204.311" stroke="#282828" stroke-width="1.4" stroke-linecap="round" stroke-linejoin="round"/>
<path d="M251.421 108.518L247.059 86.9226C246.815 85.1817 246.126 82.4398 246.963 79.8894C248.35 75.6765 253.446 67.5639 262.153 71.2807L264.037 79.8285C264.037 79.8285 254.998 81.6477 251.369 93.451L251.421 108.518Z" fill="#282828"/>
<path d="M261.498 75.7287C261.341 78.5663 258.829 90.9876 249.999 95.5052C249.999 95.5139 242.27 78.9755 261.498 75.7287Z" fill="#282828"/>
<path d="M292.461 157.333V120.661H258.575V157.333L248.481 161.903C248.481 161.903 250.854 177.109 275.876 177.449C300.898 177.788 303.41 162.651 303.41 162.651L292.461 157.333Z" fill="#FFB1A5"/>
<path d="M262.135 71.2807C262.135 71.2807 268.356 54.9077 287.532 63.6121C299.144 68.8348 302.363 75.9376 303.777 80.9427C304.236 82.8537 304.412 84.8214 304.3 86.7834L299.659 108.544L281.547 78.4445L264.019 79.8285L262.135 71.2807Z" fill="#282828"/>
<path d="M299.659 108.518C299.659 108.518 301.945 104.889 306.639 106.673C311.332 108.457 309.256 119.878 302.145 121.331C301.352 121.471 300.537 121.438 299.757 121.235C298.978 121.032 298.251 120.664 297.626 120.156C297.626 120.156 299.38 111.722 299.659 108.518Z" fill="#F3978E"/>
<path d="M305.722 110.703C305.722 110.703 301.77 109.389 298.97 115.186" stroke="#282828" stroke-width="1.4" stroke-linecap="round" stroke-linejoin="round"/>
<path d="M251.421 108.518C251.421 108.518 249.136 104.889 244.442 106.673C239.748 108.457 241.824 119.878 248.926 121.331C249.72 121.471 250.534 121.438 251.314 121.235C252.094 121.032 252.821 120.664 253.445 120.156C253.445 120.156 251.692 111.722 251.421 108.518Z" fill="#F3978E"/>
<path d="M245.358 110.703C245.358 110.703 249.301 109.389 252.102 115.186" stroke="#282828" stroke-width="1.4" stroke-linecap="round" stroke-linejoin="round"/>
<path d="M300.121 97.6813C300.121 104.567 299.441 118.964 295.201 127.511C291.222 135.537 284.635 139.863 276.007 140.115C267.378 140.368 260.94 137.052 255.784 126.641C250.627 116.23 250.88 97.8119 250.88 97.8119C250.88 97.8119 250.88 73.2218 275.239 73.2218C300.889 73.2218 300.121 97.6813 300.121 97.6813Z" fill="#FFB1A5"/>
<path d="M258.829 131.768C258.829 131.768 261.664 146.139 274.201 147.793C288.623 149.69 292.461 132.125 292.461 132.125C292.461 132.125 286.093 140.098 276.007 140.107C272.7 140.092 269.439 139.335 266.465 137.891C263.491 136.448 260.881 134.355 258.829 131.768Z" fill="#282828"/>
<path d="M273.765 107.935V113.628C273.763 113.863 273.807 114.097 273.896 114.316C274.076 114.72 274.397 115.046 274.8 115.233C275.202 115.42 275.659 115.456 276.085 115.334L277.979 114.829" stroke="#282828" stroke-width="1.4" stroke-linecap="round" stroke-linejoin="round"/>
<path d="M266.576 105.176C266.578 105.615 266.449 106.045 266.205 106.411C265.962 106.778 265.615 107.063 265.209 107.233C264.802 107.402 264.355 107.447 263.923 107.363C263.49 107.278 263.093 107.067 262.781 106.757C262.469 106.447 262.256 106.052 262.17 105.621C262.083 105.19 262.127 104.743 262.295 104.337C262.463 103.931 262.748 103.584 263.114 103.34C263.48 103.095 263.911 102.965 264.351 102.965C264.94 102.965 265.504 103.198 265.921 103.612C266.338 104.026 266.574 104.589 266.576 105.176Z" fill="#282828"/>
<path d="M287.366 105.176C287.368 105.615 287.239 106.045 286.996 106.411C286.752 106.778 286.405 107.063 285.999 107.233C285.593 107.402 285.145 107.447 284.713 107.363C284.281 107.278 283.883 107.067 283.571 106.757C283.259 106.447 283.047 106.052 282.96 105.621C282.874 105.19 282.917 104.743 283.085 104.337C283.253 103.931 283.539 103.584 283.905 103.34C284.271 103.095 284.701 102.965 285.141 102.965C285.73 102.965 286.295 103.198 286.712 103.612C287.129 104.026 287.364 104.589 287.366 105.176Z" fill="#282828"/>
<path d="M279.47 94.1647L294.381 98.0121C294.381 98.0121 293.7 93.8339 287.602 92.3194C281.503 90.8048 279.47 94.1647 279.47 94.1647Z" fill="#282828"/>
<path d="M270.205 94.1647L255.295 98.0121C255.295 98.0121 255.976 93.8339 262.074 92.3194C268.172 90.8048 270.205 94.1647 270.205 94.1647Z" fill="#282828"/>
<path d="M267.239 119.321C267.239 119.321 269.437 121.001 275.222 121.001C278.157 121.066 281.072 120.493 283.763 119.321" stroke="#282828" stroke-width="1.4" stroke-linecap="round" stroke-linejoin="round"/>
<path d="M263.758 115.221C268.962 115.221 273.18 111.012 273.18 105.82C273.18 100.628 268.962 96.4192 263.758 96.4192C258.554 96.4192 254.335 100.628 254.335 105.82C254.335 111.012 258.554 115.221 263.758 115.221Z" stroke="white" stroke-width="1.95" stroke-miterlimit="10"/>
<path d="M286.904 115.221C292.108 115.221 296.326 111.012 296.326 105.82C296.326 100.628 292.108 96.4192 286.904 96.4192C281.7 96.4192 277.481 100.628 277.481 105.82C277.481 111.012 281.7 115.221 286.904 115.221Z" stroke="white" stroke-width="1.95" stroke-miterlimit="10"/>
<path d="M273.18 105.82C273.18 105.82 275.414 103.74 277.481 105.82" stroke="white" stroke-width="1.95" stroke-miterlimit="10"/>
<path d="M254.335 105.82L251.177 105.742" stroke="white" stroke-width="1.95" stroke-miterlimit="10"/>
<path d="M296.326 105.82L299.851 105.768" stroke="white" stroke-width="1.95" stroke-miterlimit="10"/>
<path d="M258.829 76.2945C258.829 76.2945 263.357 89.1249 283.772 88.7332C297.644 88.4633 300.959 98.4821 300.959 98.4821C300.959 98.4821 298.542 76.0856 297.914 76.2945C297.286 76.5034 276.801 70.8455 276.801 70.8455L258.829 76.2945Z" fill="#282828"/>
</g>
</g>
<defs>
<clipPath id="clip0_1_356">
<rect width="561" height="361" fill="white"/>
</clipPath>
</defs>
</svg>
