<svg width="32" height="32" viewBox="0 0 32 32" fill="none" xmlns="http://www.w3.org/2000/svg">
<g id="Group 5">
<circle id="Ellipse 1" cx="16.3812" cy="15.7589" r="15.5941" fill="#FA5C98"/>
<path id="Vector" d="M21.7978 19.5803C21.5273 18.9017 21.1348 18.2852 20.6421 17.7653C20.1508 17.2439 19.5689 16.8282 18.9284 16.5411C18.9227 16.5381 18.917 16.5366 18.9112 16.5335C19.8046 15.85 20.3854 14.7367 20.3854 13.4806C20.3854 11.3998 18.7936 9.71387 16.8291 9.71387C14.8645 9.71387 13.2728 11.3998 13.2728 13.4806C13.2728 14.7367 13.8536 15.85 14.7469 16.535C14.7412 16.5381 14.7355 16.5396 14.7297 16.5426C14.0873 16.8297 13.5108 17.2413 13.0161 17.7668C12.5238 18.2871 12.1313 18.9035 11.8603 19.5818C11.5941 20.246 11.4505 20.958 11.4373 21.6794C11.4369 21.6956 11.4396 21.7117 11.4452 21.7268C11.4508 21.7419 11.4592 21.7557 11.4699 21.7673C11.4806 21.7789 11.4933 21.7881 11.5074 21.7944C11.5215 21.8007 11.5367 21.8039 11.552 21.8039H12.4124C12.4755 21.8039 12.5257 21.7508 12.5271 21.6855C12.5558 20.5129 13.0003 19.4148 13.7862 18.5824C14.5992 17.7213 15.679 17.2474 16.8291 17.2474C17.9791 17.2474 19.0589 17.7213 19.872 18.5824C20.6578 19.4148 21.1024 20.5129 21.131 21.6855C21.1325 21.7523 21.1827 21.8039 21.2458 21.8039H22.1062C22.1215 21.8039 22.1366 21.8007 22.1507 21.7944C22.1648 21.7881 22.1776 21.7789 22.1883 21.7673C22.199 21.7557 22.2074 21.7419 22.213 21.7268C22.2186 21.7117 22.2213 21.6956 22.2209 21.6794C22.2065 20.9534 22.0646 20.2471 21.7978 19.5803ZM16.8291 16.093C16.1709 16.093 15.5514 15.8212 15.0854 15.3275C14.6193 14.8339 14.3626 14.1778 14.3626 13.4806C14.3626 12.7835 14.6193 12.1273 15.0854 11.6337C15.5514 11.1401 16.1709 10.8682 16.8291 10.8682C17.4873 10.8682 18.1068 11.1401 18.5728 11.6337C19.0389 12.1273 19.2955 12.7835 19.2955 13.4806C19.2955 14.1778 19.0389 14.8339 18.5728 15.3275C18.1068 15.8212 17.4873 16.093 16.8291 16.093Z" fill="white"/>
</g>
</svg>
