<svg width="162" height="30" viewBox="0 0 162 30" fill="none" xmlns="http://www.w3.org/2000/svg">
<g id="Group 14133">
<g id="Group 14130">
<g id="Ellipse 10">
<circle cx="103" cy="15" r="15" fill="white" fill-opacity="0.21"/>
<circle cx="103" cy="15" r="14.5" stroke="white" stroke-opacity="0.33"/>
</g>
<g id="Group 69">
<path id="Vector" d="M103 12C102.204 12 101.441 12.3161 100.879 12.8787C100.316 13.4413 100 14.2044 100 15C100 15.7956 100.316 16.5587 100.879 17.1213C101.441 17.6839 102.204 18 103 18C103.796 18 104.559 17.6839 105.121 17.1213C105.684 16.5587 106 15.7956 106 15C106 14.2044 105.684 13.4413 105.121 12.8787C104.559 12.3161 103.796 12 103 12Z" fill="white"/>
<path id="Vector_2" fill-rule="evenodd" clip-rule="evenodd" d="M99.8 7C98.527 7 97.3061 7.50571 96.4059 8.40589C95.5057 9.30606 95 10.527 95 11.8V18.2C95 19.473 95.5057 20.6939 96.4059 21.5941C97.3061 22.4943 98.527 23 99.8 23H106.2C107.473 23 108.694 22.4943 109.594 21.5941C110.494 20.6939 111 19.473 111 18.2V11.8C111 10.527 110.494 9.30606 109.594 8.40589C108.694 7.50571 107.473 7 106.2 7H99.8ZM99.2667 15C99.2667 14.0099 99.66 13.0603 100.36 12.3601C101.06 11.66 102.01 11.2667 103 11.2667C103.99 11.2667 104.94 11.66 105.64 12.3601C106.34 13.0603 106.733 14.0099 106.733 15C106.733 15.9901 106.34 16.9397 105.64 17.6399C104.94 18.34 103.99 18.7333 103 18.7333C102.01 18.7333 101.06 18.34 100.36 17.6399C99.66 16.9397 99.2667 15.9901 99.2667 15ZM106.733 11.2667H107.8V10.2H106.733V11.2667Z" fill="white"/>
</g>
</g>
<g id="Group 14132">
<g id="Ellipse 8">
<circle cx="15" cy="15" r="15" fill="white" fill-opacity="0.28"/>
<circle cx="15" cy="15" r="14.5" stroke="white" stroke-opacity="0.33"/>
</g>
<path id="Vector_3" d="M24 9.77734C23.3248 10.083 22.6104 10.2843 21.8794 10.375C22.6476 9.9064 23.2254 9.16194 23.5043 8.28126C22.7779 8.72367 21.9846 9.03409 21.1583 9.19922C20.8103 8.81935 20.3918 8.51716 19.9282 8.311C19.4647 8.10484 18.9657 7.99904 18.4616 8.00001C16.4209 8.00001 14.7694 9.69531 14.7694 11.7852C14.7679 12.0758 14.7999 12.3657 14.8646 12.6484C13.4013 12.577 11.9683 12.1881 10.6575 11.5067C9.34666 10.8254 8.18681 9.86647 7.25213 8.69141C6.92422 9.26724 6.7508 9.92424 6.75 10.5937C6.75 11.9062 7.40738 13.0664 8.4 13.7461C7.8119 13.7315 7.23585 13.5694 6.72075 13.2734V13.3203C6.72075 15.1562 7.99575 16.6836 9.68325 17.0312C9.36592 17.1193 9.03891 17.164 8.7105 17.164C8.47747 17.1645 8.24496 17.1409 8.01638 17.0937C8.4855 18.5976 9.85088 19.6914 11.4683 19.7226C10.154 20.7777 8.54048 21.3479 6.88125 21.3437C6.58673 21.3433 6.29249 21.325 6 21.289C7.68794 22.4118 9.65004 23.0056 11.6528 23C18.4538 23 22.1693 17.2304 22.1693 12.2266C22.1693 12.0625 22.1651 11.8984 22.1576 11.7383C22.8788 11.2039 23.5027 10.5399 24 9.77734Z" fill="white"/>
</g>
<g id="Group 14131">
<g id="Ellipse 9">
<circle cx="59" cy="15" r="15" fill="white" fill-opacity="0.21"/>
<circle cx="59" cy="15" r="14.5" stroke="white" stroke-opacity="0.33"/>
</g>
<path id="Vector_4" d="M62.024 23V17.195H64.0978L64.408 14.9383H62.024V13.4983C62.024 12.845 62.2178 12.3992 63.2169 12.3992H64.4916V10.3808C63.8745 10.3195 63.2543 10.2897 62.6338 10.2917C60.7964 10.2917 59.5387 11.3433 59.5387 13.275V14.9383H57.4604V17.195H59.5387V23H51.8889C51.6531 23 51.427 22.9122 51.2603 22.7559C51.0937 22.5996 51 22.3877 51 22.1667V8.83333C51 8.61232 51.0937 8.40036 51.2603 8.24408C51.427 8.0878 51.6531 8 51.8889 8H66.1111C66.3469 8 66.573 8.0878 66.7397 8.24408C66.9064 8.40036 67 8.61232 67 8.83333V22.1667C67 22.3877 66.9064 22.5996 66.7397 22.7559C66.573 22.9122 66.3469 23 66.1111 23H62.024Z" fill="white"/>
</g>
<g id="Group 14129">
<g id="Ellipse 11">
<circle cx="147" cy="15" r="15" fill="white" fill-opacity="0.21"/>
<circle cx="147" cy="15" r="14.5" stroke="white" stroke-opacity="0.33"/>
</g>
<path id="Vector_5" d="M147.058 9H147.158C148.083 9.00347 152.769 9.03817 154.032 9.38749C154.414 9.4941 154.762 9.7019 155.042 9.99013C155.321 10.2784 155.522 10.6369 155.624 11.03C155.738 11.4695 155.818 12.0513 155.872 12.6517L155.883 12.772L155.908 13.0727L155.917 13.193C155.99 14.2502 155.999 15.2403 156 15.4566V15.5434C155.999 15.7678 155.989 16.825 155.908 17.9261L155.899 18.0476L155.889 18.1679C155.832 18.8295 155.749 19.4865 155.624 19.97C155.522 20.3632 155.321 20.722 155.042 21.0102C154.763 21.2985 154.414 21.5062 154.032 21.6125C152.727 21.9734 147.767 21.9988 147.079 22H146.92C146.572 22 145.134 21.9931 143.626 21.9399L143.435 21.9329L143.337 21.9283L143.145 21.9202L142.953 21.9121C141.704 21.8554 140.515 21.764 139.967 21.6114C139.585 21.5052 139.237 21.2976 138.957 21.0096C138.678 20.7215 138.477 20.363 138.375 19.97C138.25 19.4877 138.167 18.8295 138.11 18.1679L138.101 18.0464L138.092 17.9261C138.037 17.1424 138.006 16.357 138 15.5711V15.4289C138.002 15.1802 138.011 14.3208 138.072 13.3723L138.08 13.2531L138.083 13.193L138.092 13.0727L138.117 12.772L138.128 12.6517C138.182 12.0513 138.262 11.4684 138.376 11.03C138.478 10.6368 138.679 10.278 138.958 9.98976C139.237 9.70148 139.586 9.49378 139.968 9.38749C140.516 9.23712 141.705 9.14459 142.954 9.08675L143.145 9.07865L143.338 9.07171L143.435 9.06824L143.628 9.06015C144.698 9.02472 145.77 9.00506 146.841 9.00116H147.058V9ZM145.2 12.713V18.2859L149.877 15.5006L145.2 12.713Z" fill="white"/>
</g>
</g>
</svg>
