<svg width="21" height="21" viewBox="0 0 21 21" fill="none" xmlns="http://www.w3.org/2000/svg">
<g id="ant-design:heart-filled">
<path id="Vector" d="M18.5245 6.09101C18.2615 5.48208 17.8823 4.93028 17.4081 4.46648C16.9335 4.00131 16.374 3.63164 15.76 3.37758C15.1233 3.11309 14.4404 2.97771 13.7509 2.97929C12.7837 2.97929 11.84 3.24416 11.0198 3.74447C10.8236 3.86415 10.6373 3.9956 10.4607 4.13883C10.2841 3.9956 10.0977 3.86415 9.9015 3.74447C9.08139 3.24416 8.13767 2.97929 7.17041 2.97929C6.4739 2.97929 5.79898 3.11271 5.16133 3.37758C4.54526 3.63264 3.99002 3.99953 3.51326 4.46648C3.03845 4.92975 2.65916 5.48169 2.39688 6.09101C2.12416 6.72474 1.98486 7.3977 1.98486 8.09028C1.98486 8.74363 2.11828 9.42444 2.38315 10.117C2.60485 10.6958 2.9227 11.2962 3.32883 11.9024C3.97236 12.8618 4.85722 13.8625 5.95594 14.8768C7.77667 16.5582 9.57974 17.7197 9.65626 17.7668L10.1212 18.0651C10.3273 18.1965 10.5921 18.1965 10.7981 18.0651L11.2631 17.7668C11.3396 17.7178 13.1408 16.5582 14.9634 14.8768C16.0622 13.8625 16.947 12.8618 17.5906 11.9024C17.9967 11.2962 18.3165 10.6958 18.5362 10.117C18.8011 9.42444 18.9345 8.74363 18.9345 8.09028C18.9365 7.3977 18.7972 6.72474 18.5245 6.09101Z" fill="#D7D7D7"/>
</g>
</svg>
